<svg xmlns="http://www.w3.org/2000/svg" xmlns:xlink="http://www.w3.org/1999/xlink" width="500" zoomAndPan="magnify" viewBox="0 0 375 375" height="500" preserveAspectRatio="xMidYMid meet" xmlns:v="https://vecta.io/nano"><style><![CDATA[.B{fill-rule:evenodd}.C{fill:#dfdfd8}.D{clip-rule:nonzero}.E{fill:#f2af04}.F{fill:#f9f8f6}.G{fill:#c2572c}.H{fill:#a5acab}.I{fill:#666563}.J{fill:#cdccc6}.K{fill:#d3362c}]]></style><defs><clipPath id="A"><path d="M42.234 45.02h280.5V330h-280.5zm0 0" class="D"/></clipPath><clipPath id="B"><path d="M232 184h30.5v19H232zm0 0" class="D"/></clipPath><clipPath id="C"><path d="M239 199h23.5v10H239zm0 0" class="D"/></clipPath><clipPath id="D"><path d="M112.5 198H133v11h-20.5zm0 0" class="D"/></clipPath><clipPath id="E"><path d="M112.5 185H143v17h-30.5zm0 0" class="D"/></clipPath><clipPath id="F"><path d="M167 210h19v11.336h-19zm0 0" class="D"/></clipPath><path id="G" d="M168.945 270.71c0 .969-.352 1.773-1.047 2.406-.687.625-1.531.938-2.531.938-.918 0-1.762-.305-2.531-.922l-.516.672c-.094.125-.18.188-.25.188-.148 0-.219-.09-.219-.266v-2.562c0-.164.063-.25.188-.25.102 0 .18.078.234.234a3.26 3.26 0 0 0 1.172 1.813c.594.469 1.266.703 2.016.703a2.79 2.79 0 0 0 1.719-.562c.508-.426.766-.957.766-1.594 0-.676-.289-1.145-.859-1.406-.211-.094-.43-.176-.656-.25l-.703-.234-1.531-.453c-1.418-.426-2.125-1.227-2.125-2.406a2.54 2.54 0 0 1 1.016-2.109c.613-.488 1.367-.734 2.266-.734.75 0 1.492.195 2.234.578l.406-.484c.07-.102.145-.156.219-.156.113 0 .172.074.172.219v2.547c0 .137-.062.203-.187.203s-.195-.062-.203-.187c-.105-.727-.387-1.297-.844-1.703-.461-.414-1.059-.625-1.797-.625-.574 0-1.07.133-1.484.391-.48.324-.719.758-.719 1.297 0 .637.313 1.07.938 1.297.125.055.41.141.859.266l1.906.516c1.395.375 2.094 1.258 2.094 2.641zm0 0"/></defs><g fill="#fff"><path d="M-37.5-37.5h450v450h-450z"/><path d="M-37.5-37.5h450v450h-450z"/></g><g clip-path="url(#A)" class="B"><path fill="#d64f6b" d="M122.496 81.898zm-38.07 6.016l46.828-19.719-15.848 16.145-39.797 23.352 1.07-.594zm50.461-21.211L120.41 81.422l1.371-.836 50.699-29.727zm37.535-15.844l4.883-2.863zm20.137 0l37.59 15.844 14.477 14.719-1.367-.836zm41.105 17.336L249.57 84.34l38.785 22.758-7.805-19.184zm55.645 41.168l10.664 26.211-33.125-33.66-13.227-13.465zm14.715 36.16l17.16 42.063-17.16 42.121zm-4.051 94.133l-10.664 26.211 1.074-.594-36.762 21.566 13.227-13.465zm-11.617 28.418l-38.785 22.758-17.215 17.516 1.367-1.371 46.828-19.719zm-59.578 41.82l1.371-1.371-37.59 15.789 50.699-29.73 1.367-.832zm-56.355 14.418l-37.594-15.789 1.371 1.371-15.848-16.145 1.367.832zm-39.738-15.965l-17.219-17.516-39.855-23.355 1.07.598 7.805 19.184 46.828 19.719zm-56.957-42.539l-10.664-26.215 33.125 33.66 13.227 13.465zm-14.715-36.102l-17.156-42.121 17.156-42.062zm4.051-94.133l33.125-33.66 13.227-13.465-35.687 20.914zm257.551 51.711l-20.437-50.102-20.434-50.105-.117-.297-.301-.117-49.27-20.793-49.27-20.734-.297-.117-.297.117-49.27 20.734-49.328 20.793-.301.117-.117.297-20.437 50.105-20.375 50.102-.117.301.117.297 20.438 50.105 20.434 50.102.121.297.297.121 49.328 20.73 49.328 20.734h.539l49.328-20.734 49.328-20.73.297-.121.121-.297 20.434-50.102 20.434-50.105.121-.297zM242.48 81.898zM62.441 187.586v-47.305l36.758-37.355 17.16-17.395 6.137-3.574 59.992-35.27 59.992 35.211 6.137 3.574 17.16 17.395 36.758 37.355v94.605l-36.758 37.355-17.16 17.395-6.137 3.574-59.992 35.211-59.992-35.211-6.137-3.574-17.16-17.395-36.758-37.355zM243.258 80.645zm0 0"/></g><g class="B"><path d="M222.43 211.238c-1.52-.41-2.687.645-3.973 1.113l-8.82 3.34c-.465.176-1.051.82-1.574-.059-.352-2.402-.176-4.805.465-7.207.293-.586.934-.762 1.461-.937 3.738-1.293 7.359-2.816 10.98-4.223.645-.293 1.344-.586 2.105-.469.348.117.523.352.523.293-1.926-3.281-4.262-6.738-5.605-10.723-.293-.996-.762-2.109.172-2.992s2.105-.527 3.098-.117c3.563 1.352 6.426 3.871 9.461 6.098.762.527 1.52 1.055 2.164 1.699.523.703 1.168.879 1.926.586 2.922 1.934 5.082 4.629 7.418 7.148.992 1.699.992 1.699-.641 1.875-4.266-.527-8.355.117-12.324 1.527-.176.059-.293.234-.41.41-.992.762-1.988.586-3.039.117-.699-.352-.992-1.172-1.691-1.645-.41 1.469.699 3.578-1.695 4.164zm0 0" class="C"/><path d="M186.859 163.531c0-.234.055-.41.055-.645.703-.762.938-1.816 1.754-2.578 2.922-2.578 6.484-4.16 9.871-6.035 2.922-1.645 4.965-3.695 6.016-7.035.879-2.93 2.688-5.508 4.848-7.793 3.625-2.871 6.367-3.047 10.164-.527.41.527.41 1.172.059 1.699-2.277 3.574-4.789 6.973-7.477 10.195-2.102.586-4.379.879-5.781 2.934-1.227 1.816-1.578 3.691-.703 5.742.117.293.117.586.059.82-.992 2.051-2.918 3.398-3.852 5.449-.117.293-.469.352-.762.41-1.168-.586-2.277-.176-3.387.176-2.863-.586-5.727-.82-8.586-.937-.879-.059-2.512-.059-2.277-1.875zm0 0" class="E"/><path fill="#da3d2f" d="M167.113 155.152l-4.32-5.219c-.234-.352-.527-.703-.293-1.172.934-.352 1.871-.762 2.922-.586.406.176.816.469 1.344.41 4.613-.586 9.168-.469 13.844.293 0-1.055-.469-1.758-.937-2.461-.348-.645-.758-1.289-.348-2.051.289-.41.699-.527 1.109-.527 2.57.117 4.613-.879 6.426-2.578.289-.234.641-.41.992-.41 1.344 1.406 1.402 2.051.348 3.457 0 0-.113.059-.059.059 1.402.527 1.813 1.523.996 2.754-.41.703-.879 1.348-1.812 1.348-.41-.234-.465-.703-.582-1.055-.176-.527-.469-.879-1.055-.703-.465.176-.992.352-.934.938 0 .586.352.82.934.879.293.059.586.059.879.176.117.117.176.293.176.469-.762.879-1.461 1.758 0 2.637.117.059.23.293.172.469-.289 2.113 1.113 1.289 2.047 1.23.934 0 1.461-.937 2.336-1.055.816 1.703.699 2.172-1.109 3.461-.293.059-.469.059-.703-.059-.348-.293-.523-.996-1.109-.586-.348.176 0 .527.176.762.469.703.934.176 1.344 0 1.051-.469 2.102-1.465 3.039.117-.996 1.816-2.746 2.637-4.5 3.398-.758-.234-1.52-.527-2.277-.762-1.285-1.055-1.637-2.695-2.512-3.984-.41-.645-.641-1.352-1.227-1.996-2.57 3.578-5.605 6.625-9.23 9.027-1.168-.645-1.867-1.641-2.566-2.695-.527-1.289-.293-2.637-.469-3.984-.117-.762-.176-1.469-.469-2.172-.293-.645-.582-1.348-1.461-1.055-.758.293-.641.938-.523 1.582s.758 1.527-.586 1.645zm0 0"/><path d="M182.008 192.953l4.906.469c.527.527.469 1.23.527 1.875.059 1.465-.176 2.871-.527 4.219-.875 4.102-1.109 8.324-1.75 12.426-.059.645-.176 1.23-.703 1.699-.934.762-2.043.762-3.152.703-4.09-.234-8.18-.996-12.148-2.109-.586-.176-1.227-.352-1.461-.996-.059-1.934.758-3.457 1.926-4.867.762-.234.762.234.82.762.816-1.641 2.16-2.988 3.094-4.57.41-.703.875-1.289 1.695-1.641.465-.176 1.051-.293 1.227-.937.352-.996.699-1.934 1.461-2.637.348-.293.641-.586.992-.82 1.695-.996 2.977-.645 3.68 1.23 1.285 3.164 1.285 6.504 1.461 9.199.234-3.047.816-6.621 1.461-10.254.348-2.051.059-2.285-2.047-2.461-1.402-.059-2.859-.117-4.145-.82-.527-.879-.293-1.875-.352-2.871 0 .234.352 2.051 3.035 2.402zm0 0" class="F"/><path d="M141.938 159.195c-.348 0-.641-.059-.992-.059-1.926-2.285-3.68-4.687-4.672-7.621-.992-3.105-.586-5.918.992-8.672.293-.41.586-.703 1.051-.879.176-.059.352 0 .469.117.699 1.465-.875 2.109-.992 3.164.176-.117.234-.527.406-.82.762-1.172 1.285-1.289 2.281-.234 1.227 1.289 2.043 2.813 3.152 4.16.176.234.352.469.703.703-.234-.879-1.227-1.406-.937-2.461.762-.469 1.051.176 1.402.586.41.469.82.879 1.461.938.934.41 1.344 1.348 1.984 2.051.41 1.113 1.113 2.109 1.461 3.281-.117.824.645 1.586.176 2.406-1.109.469-.234.996 0 1.406 1.285 1.816 2.453 3.633 3.445 5.566.117.293.352-.059.176.059-.059.059-.117 0-.176-.059-.176-.527-.641-.996-.117-1.523 1.055.117 1.285.996 1.754 1.699l.586 7.617c.113.762-.117 1.938 1.34 1.469.176 0 .352.059.469.176s.176.293.176.469c.117.762.41 1.699-.934 1.758-.469 0-.879.293-1.344.41-.176 0-.352-.059-.469-.117-2.746-2.285-5.082-4.867-7.008-7.855-.645-.937-.879-1.934-.762-3.105.234-2.227.41-4.453-.758-6.504-.527-.937-1.168-1.934-2.395-.703-.758.762-1.461 1.582-1.93 2.578zm0 0" class="G"/><path fill="#6e6d6b" d="M212.031 150.578l7.012-9.785a2.78 2.78 0 0 0 .523-1.699c-.641-.586-.641-.586 0-.879 1.055 1.113 1.344-.059 1.754-.586l10.805-14.887.703-.879c1.75-.059 2.746 1.348 3.914 2.285a1.29 1.29 0 0 1-.117.82l-11.273 15.824-.762 1.289c-.176.234-.23.527-.406.82l-.41.82a3.94 3.94 0 0 1-.41.645c-2.336 2.871-4.145 6.152-6.598 8.965-.527.352-.469 1.234-1.168 1.41-.937-.234-1.871-.527-2.629-1.234-.586-.703-2.047-.527-1.93-1.934 0-.645.703-.645.992-.996zm0 0"/><path d="M186.914 195.297v-1.875c2.98 0 5.961-.527 8.879-1.172.117.176.176.352.176.527-.523 1.113-1.633.996-2.512 1.23-.992.293-1.984.293-2.977.234-1.285-.059-1.754.527-1.637 1.816l.934 9.199c.176-2.285.762-4.277 1.402-6.27.934-3.164 2.746-3.809 5.551-2.051.348.176.641.41.934.586.582.469.816 1.23 1.051 1.875.293.996 1.285.938 1.926 1.289.996 1.055 1.988 2.109 2.805 3.34.469.586.879.469 1.461.352 1.168.938 1.637 2.344 1.984 3.695-.172 1.641-1.457 1.523-2.566 1.641-1.988-.234-3.914.41-5.844.586l-6.074.41c1.051.176 2.16-.469 3.098.352-2.047 1.289-4.148.82-6.309.352-1.168-1.816-.879-3.984-1.109-6.039-.176-2.227-.762-4.453-.703-6.738-.41-1.055.293-2.285-.469-3.34zm0 0" class="C"/></g><g clip-path="url(#B)" class="B F"><path d="M235.457 184.102c2.395.879 4.262 2.637 6.367 3.926l7.766 5.219 12.211 7.91c.465.293.699.527.699.82v.059c0 .176-.117.41-.293.645-3.211-1.465-6.656-1.641-10.105-2.051-2.918-.352-5.84-.352-8.82-.469-2.16-1.055-4.027-2.402-5.43-4.395.289-.41.523-.703-.059-1.23-1.578-1.289-3.215-2.52-4.559-4.043-.465-.586-1.051-1.059-1.051-1.879 0-.176 0-.352.059-.527.352-1.465 1.461-1.582 2.629-1.465 1.93.234 3.68.996 5.316 1.992 4.438 2.641 8.762 5.453 13.082 8.207-5.43-3.516-10.922-6.914-16.18-10.727-.699-.527-1.75-.762-1.633-1.992zm0 0"/></g><g class="B"><path d="M164.719 187.441c.992 0 1.813.469 2.57 1.055-.059.059-.117.117-.176.234-2.395.117-3.562 2.055-4.848 3.578l-6.133 6.328c2.805-2.285 5.84-4.805 9.637-6.094 1.227-.41 2.57-.879 3.215.938-.059.703-.176 1.406-.176 2.109-.176.938-.469 1.816-.059 2.754.758 1.934-.586 3.398-1.051 5.098-.176.762-.703 1.465-.234 2.285-.117.938-.527 1.703-1.168 2.348-1.227.703-2.277.117-3.211-.586-2.863-1.586-5.668-3.168-8.996-3.402-1.109-.176-2.277-.234-2.687-1.582.117-1.23 1.227-1.816 1.867-2.637 3.391-3.984 7.012-7.734 10.398-11.723.293-.352.586-.645 1.051-.703zm0 0" class="C"/><path fill="#acd0e1" d="M222.488 170.27l-1.109-1.816c-.527-.469-.758-1.113-1.051-1.699-.117-.352-.234-.703-.293-1.055 0-.352.059-.703.059-1.113.117-1.758-.176-3.516.41-5.273.348-1.113.934-2.168 1.516-3.164.176-.352.41-.645.586-.879 1.109-1.703 2.629-2.816 4.262-3.871.703-.586 1.52-.879 2.398-1.172 2.16-.703 4.379-.937 6.598-.762.762 1.055 1.813 1.172 2.98 1.172.41.176.875.293 1.285.586 1.637.879 2.98 1.992 4.148 3.402l1.574 3.457c.645.293.762.82.645 1.465-.879.879-.527 1.992-.527 2.988-.059 4.043-1.809 7.207-4.848 9.789-3.855 3.398-12.324 3.867-16.062-.41.699.586 1.402 1.23 2.219 1.758.41.293.82.586.352 1.172-.176.117-.41.234-.645.352-1.75-.996-3.328-2.168-4.379-3.93-.176-.293-.352-.586-.117-.996zm0 0"/></g><g clip-path="url(#C)" class="B"><path fill="#d4d1cb" d="M242.758 199.75c6.25-.234 12.324.41 18.398 1.758.758.176 1.051.469 1.051 1.172-.465 1.582-.934 3.164-1.344 4.809-.348 1.348-.992 1.641-2.395 1.406-4.555-.937-9.168-1.586-13.844-1.406-.582 0-1.227 0-1.691.469-.996-.941-2.512-.293-3.449-1.293.645-.82 1.461-.41 2.223-.293 2.336-.41-.41-.937.059-1.465.172-1.113.172-2.227.289-3.398 0-.645.117-1.289.703-1.758zm0 0"/></g><g clip-path="url(#D)" class="B H"><path d="M126.813 207.074c-3.566.117-7.012.707-10.457 1.527-1.227.293-1.984.117-2.219-1.293-.352-2.051-1.637-3.867-1.344-6.094 1.109-.527 2.277-.937 3.504-1.172 3.738-.586 7.477-1.23 11.273-1.23 1.402 0 2.805-.176 4.207.176.816.469.934 1.348 1.168 2.109.059.527-.293.938-.469 1.406.059 4.395.059 4.395-4.379 4.453-.469 0-.879-.117-1.285.117zm0 0"/></g><path d="M126.813 207.074c1.227-.586 2.566-.293 3.797-.293 1.168 0 1.398-.352 1.516-1.465.059-1.172-.758-2.227-.059-3.34 1.871-.352 3.68.117 5.492.352l8.938 1.289c.816.117 1.691.234 2.395.879.758 2.227.234 4.574.352 6.918.059.41-.176.82.117 1.23-.352.82-.996.469-1.578.293-4.324-1.23-8.703-2.051-13.203-2.109-1.457 0-2.336-.645-2.16-2.285.117-1.113-.469-1.469-1.52-1.41-1.344.059-2.746 0-4.086-.059zm0 0" class="B C"/><g clip-path="url(#E)" class="B C"><path d="M116.121 200.453c-1.051.469-2.16.703-3.328.762 1.633-1.289 3.27-2.52 5.141-3.398.992.234 1.574-.527 2.336-.937 5.43-2.988 10.453-6.738 15.945-9.672 1.227-.645 2.453-1.289 3.738-1.641.758-.234 1.52-.586 2.336-.059.762.762.645 1.758.527 2.695-.293 1.41-1.344 2.172-2.336 2.992-1.402 1.055-2.57 2.402-3.855 3.633-.527.41-.82.938-.762 1.582-.992 1.406-2.16 2.52-3.855 2.93h-4.437c-.234-.293-.586-.41-.992-.352-3.504.352-7.07.293-10.457 1.465zm0 0"/></g><path d="M189.195 211.18c2.102-.059 4.203.41 6.25-.293 1.867-.82 3.914-.703 5.84-1.113.992-.176 1.984-.703 3.039-.41.758-.41 2.219.176 2.219-1.465a.59.59 0 0 1 .699.586c.234 1.934.586 3.809.059 5.742-.934-.41-.758.352-.699.762.117 1.23-.586 1.641-1.695 1.934-4.848 1.289-9.754 1.934-14.777 1.758-.758 0-1.52 0-1.344-1.172.352-.82.059-1.641 0-2.461.176-1.289-.469-2.695.41-3.867zm0 0" class="B H"/><g clip-path="url(#F)" class="B C"><path d="M167.992 210.828c.059.352.172.645.641.762 4.383 1.113 8.82 2.051 13.316 2.285.879 0 1.578-.293 2.398-.41.992 1.289.172 2.871.758 4.219 0 3.574 0 3.633-3.445 3.574-3.973 0-7.828-.645-11.625-1.699-1.461-.41-2.16-1.113-2.102-2.695.059-.996.406-2.109-.352-3.047-.586-1.113-.934-2.168.41-2.988zm0 0"/></g><g class="B"><path d="M239.543 206.781l2.164-.059c.934-.059 1.227.41 1.227 1.234l-.469 4.395c-.059 1.172-.641 1.758-1.867 1.816-4.676.059-9.23 1.172-13.73 2.168-.641.117-1.281.293-1.457-.586.23-2.461.117-4.98.348-7.441.996.352 2.047.645 3.039-.059 3.039-1.117 6.191-1.527 9.344-1.82.469-.059.996-.059 1.402.352zm0 0" class="H"/><path fill="#842f26" d="M138.375 142.023c-.234.293-.523.527-.758.82-1.168.527-2.043 1.875-3.621 1.465l-10.574-19.574c-.293-.527-.348-1.465-1.344-1.289-.059.059-.117.117-.176.059-.641-.176-.406-.703-.465-1.172-.059-.352-.352.059-.527.059-.523.059-.992.059-1.461-.059-.641-.352-1.051-.937-1.457-1.523-.527-.996.23-2.637-1.52-2.934-.234-3.105 4.09-9.023 7.418-6.562.582.82.641 1.641 0 2.461a8.69 8.69 0 0 1-.816 1.172c-.117.176-.293.293-.41.469l.059.176c-1.52 1.992-.934 3.637.641 5.277.703.703 1.168 1.699 1.93 2.461l12.09 16.352c.469.645 1.461 1.23.992 2.344zm0 0"/><path d="M151.637 202.27c.406 1.348 1.691 1.113 2.629 1.582 1.227-.117 2.277.469 3.328.996 1.809.879 3.797 1.289 5.547 2.344.938.473 1.813 1.117 2.98.648.816.82.527 1.875.586 2.813.059 1.406-.117 2.871.117 4.277-.176 1.348-1.055.82-1.754.586-3.562-1.113-7.008-2.461-10.398-3.926-1.168-.469-2.336-1.055-3.68-1.055-.465-2.461-.234-4.926-.117-7.328.059-.469.234-.879.762-.937zm0 0" class="H"/><path d="M232.887 197.465l-8.703-6.27c-1.168-.879-2.512-1.465-3.973-1.82-1.812-.41-2.453.355-1.988 2.113.586 2.52 1.988 4.746 3.156 7.031l3.152 5.684c-.582-.176-.992-.586-1.285-1.172-2.395-2.109-4.32-4.629-6.309-7.148-1.574-1.875-3.562-3.34-5.078-5.273-.41-1.113-1.754-1.586-1.988-2.816 1.988-1.113 4.09-1.875 6.191-2.578.703-.176 1.461-.234 1.988-.762a.56.56 0 0 1 .523-.059l6.133 4.805c.527.234 1.168 0 1.637.414a62.71 62.71 0 0 0 5.547 5.566c.703.645 1.52 1.172.996 2.285zm0 0" class="J"/><path fill="#ecebe6" d="M156.836 184.336c1.867 1.465 4.32 1.289 6.305 2.344.352.176.82.293 1.23.41-1.812 3.109-4.441 5.512-6.953 8.031-1.695 1.055-2.863 2.695-4.32 4.043-.352.293-.586.586-.937.879-.348.234-.758.645-1.168.352-.465-.41-.234-.937.059-1.348 1.051-1.523 1.988-3.105 2.98-4.687.758-1.055 1.402-2.227 1.809-3.457.352-.996 0-1.527-1.109-1.527-1.344 0-2.57.238-3.738.941-3.328 1.992-6.715 3.867-9.93 6.094-.816.527-1.578 1.055-2.453 0-.117-.469.117-.82.469-1.113l7.477-6.273c.176-.176.406-.234.641-.293 1.051-.059 1.988.352 3.039.176 2.16-1.289 3.855-3.34 6.074-4.57.176-.059.352-.059.527 0zm0 0"/><path fill="#da3d30" d="M204.324 135.75l1.168 7.035c.059.117.172.234.172.352.117 3.047-3.152 8.496-5.898 9.785-.293.117-.582.176-.875.059-.176-.117-.293-.234-.293-.41.059-1.465-.176-2.871.352-4.336.465-1.465-.293-2.051-2.453-2.344-.293-.234-.469-.527-.586-.879-.117-.645.234-1.23.469-1.758.816-2.051.641-2.461-1.285-3.34-.176-.352 0-.645.293-.703 2.453-.703 3.973-2.695 5.84-4.164.176-.117.352-.293.586-.41 1.867-.996 2.102-.879 2.512 1.113zm0 0"/><path fill="#b9492c" d="M157.184 172.207c-.465.352-.523 1.23-1.344.996-.699-.176-.523-.937-.582-1.406-.469-2.992-.762-5.922-.586-8.91-.234-.234-.234-.469-.234-.762.059-.41.234-.82.293-1.289.586-1.699.352-3.516 1.227-5.156 1.051-1.996 1.168-2.113 3.156-.996 1.516 1.816 2.688 3.809 2.688 6.328-.176.938-.996.762-1.578.879-.934-.059-1.051.527-.992 1.289.059.645.523 1.172.465 1.875-.059.352-.176.703-.293 1.055l-1.168 4.453c-.172.586-.348 1.293-1.051 1.645zm0 0"/><path fill="#943129" d="M133.996 144.309c1.344-.176 2.16-1.699 3.621-1.465-2.98 5.801-.875 10.605 2.98 15.063.348.352.699.703.348 1.23-.059.059-.176.176-.293.234-3.504 1.641-3.504 1.641-5.664-1.758-1.344-2.051-2.453-4.281-2.687-6.801-.293-2.402.645-4.453 1.695-6.504zm0 0"/><path fill="#942f29" d="M154.672 176.25c-1.109.645-2.336.762-3.504 1.055-.758.234-1.285-.059-1.867-.469-3.215-2.695-5.141-6.215-6.953-9.906-.469-.879.117-1.758.41-2.578.523.703 1.109.996 1.984.41.41-.293.879-.645 1.461-.41 1.051 1.582 1.871 3.34 2.863 4.98 1.227 2.051 2.859 3.871 4.613 5.453.469.41 1.109.645.992 1.465zm0 0"/><path d="M168.34 195.59c-.117-.762.059-1.465.41-2.168.234-1.23 1.227-1.992 1.813-2.988.113-.176.23-.234.406-.352 1.578-2.641 3.797-2.172 6.133-1.176.703.293 1.52.293 2.277.41.059.355.059.766.117 1.117-.875 2.168-1.109 4.57-2.625 6.504-1.172.469-2.223.293-3.215-.469-.934-.996-2.219-1.23-3.562-1.289-.758-.586-1.109.527-1.754.41zm0 0" class="I"/><path fill="#8fbed3" d="M227.629 174.844c-.176-1.172-1.344-1.289-2.043-1.934-.527-.469-1.113-.879-1.695-1.289.176-.121.293-.297.469-.473.465.293 1.051.531 1.457.941 3.855 3.281 8.297 3.105 12.5 1.348 4.617-1.937 7.129-5.805 7.129-11.078 0-.762.117-1.582 0-2.402-.117-.879.699 0 .816-.469 1.109.352 1.051 1.348 1.168 2.227.117.996.117 2.051-.117 3.047-.992.586-.582 1.816-1.109 2.578.469 1.523-.527 2.578-1.168 3.691-.527.883-1.285 1.645-2.16 2.23-2.164.938-3.973 2.52-6.367 3.047-1.695 1.406-3.621.879-5.492.527-.465-.059-.816-.293-1.109-.586l-2.277-1.406zm0 0"/><path d="M195.852 189.672c-.059-.531.293-.59.645-.648.699-.059 1.461 0 1.984-.352 2.336-1.289 4.031-.586 5.375 1.41 1.402 1.172 3.094 2.168 3.211 4.277-.465.41-1.051.293-1.633.41-1.637 0-2.98.762-4.324 1.641-.699.41-1.461.703-2.336.469-1.52-1.699-1.871-3.926-2.57-5.977-.117-.41-.117-.82-.352-1.23zm0 0" class="I"/><path fill="#df3034" d="M155.023 174.785h.41c.582-.176 1.051.176 1.516.469 7.07 4.16 14.781 6.445 22.723 8.086 2.512.527 5.023.586 7.535.645.703 0 1.695-.293 1.93.82-.176 1.055-.937 1.172-1.812 1.23-2.805.176-5.605-.293-8.352-.82-7.535-1.523-14.895-3.691-21.672-7.441-.758-.469-1.52-1.055-2.277-1.582-.352-.469-.469-.937 0-1.406zm0 0"/><path fill="#f0e2ca" d="M163.551 148c.176-1.934.875-3.105 3.098-3.281 1.633-.117 3.035-1.172 4.379-2.109l3.215-2.168c2.57-1.582 5.254-2.109 8.117-.645.527-.469.816-1.172 1.578-1.289.293-.059.523-.059.816.059.645.527 1.578.645 2.219 1.23 0 .762-.523.879-1.051.938-2.16-.762-3.797-.059-5.141 1.699-1.051 1.055-2.57 1.055-3.797 1.582-4.145 1.23-8.059 2.988-12.266 4.043-.406.117-.816.293-1.168-.059zm0 0"/><path d="M173.188 161.832c1.113-1.875 3.098-2.695 4.5-4.277 1.461-1.641 3.27-2.93 4.203-4.984.234-.586.586-1.113 1.055-.176l3.211 6.391c-.293.293-.699.41-1.109.41-.117.117-.293.176-.469.117-1.574-.352-2.918.117-3.969 1.289-2.457.762-4.852 1.523-7.422 1.23zm0 0" class="K"/><path d="M150.527 141.32c.699.762-.059 1.348-.293 1.934-.703 1.699-1.695 3.34-.41 5.156.293.293.293.645.117.996-.176.234-.41.293-.699.293-.645-.117-.937-.996-1.754-.82-.641-.176-1.051-.703-1.52-1.23.352-.879-1.75-1.699-.059-2.637-.816-.586-1.285-1.465-1.867-2.168l-1.578-2.051c-.699-.879-1.578-1.641-.41-2.812 1.055-1.113 2.395-1.406 3.621-.645 1.113.703 1.988 1.641 2.805 2.695.527.703 1.168 1.172 2.047 1.289zm0 0" class="G"/><path fill="#ecebe6" d="M206.891 194.477c-.23-1.992-2.277-2.754-3.035-4.395 2.277-.176 3.973-1.703 6.016-2.289.934.762 1.871 1.465 2.219 2.641 0 .527.352.879.703 1.23 2.395 1.992 4.203 4.512 6.309 6.738.289.293.875.703.406 1.172-.406.469-.934.059-1.344-.176l-5.605-3.926c-.992-.703-2.102-1.23-3.211-1.758-.996-.41-1.812-.703-1.695.938.059.41 0 .879-.527 1.055-.582-.352-.523-.762-.234-1.23zm0 0"/><path d="M218.34 184.512c-.059 0-.176-.059-.289-.059-.059-3.984-.059-3.867 3.738-4.512 1.75-.293 3.094 0 4.555.879 1.344.82 2.805 1.465 4.207 2.168 2.512.703 3.094 1.406 2.684 3.047-.117.352-.23.703-.699.703-.527-1.348-1.578-1.582-2.922-1.406-1.516.293-3.094.527-4.672.293-2.219-.762-3.914-2.402-5.957-3.574-.352.879.176 1.816-.645 2.461zm0 0" class="I"/><path fill="#facd59" d="M198.773 152.805c2.336-.937 4.09-2.461 4.848-4.98 1.871-6.68 8.469-14.887 15.945-9.609-.465.293.059.586 0 .879-.23-.059-.523-.059-.699-.176-3.387-2.285-6.426-1.348-9.348.938-2.395 2.93-4.32 6.152-5.488 9.844-.469 1.641-1.695 2.637-3.039 3.516-3.914 2.758-8.469 4.398-12.207 7.504-.41.176-.586-.059-.699-.41.113-.234.23-.469.348-.762l4.441-3.34c1.227-1.641 3.445-1.875 4.906-3.168.293-.176.641-.41.992-.234zm0 0"/><path d="M156.836 184.336c-.117.059-.234.059-.352.059-.703-.703-.293-1.641-.527-2.578-2.102.996-3.738 2.695-5.781 3.633-.41.059-.762-.059-1.109-.293-1.754-.996-3.855-.703-5.785-1.23-.523-1.172.645-.879 1.109-1.23 1.23-.645 2.57-1.113 3.738-1.934 2.57-1.875 5.199-1.172 7.945-.527.645.176.875.469.875 1.172-.113.996-.113 1.992-.113 2.93zm0 0" class="I"/><path fill="#cdccc8" d="M144.391 182.695l-1.34.996c-.117.293-.293.469-.41.762-.176.352-.234.82-.586 1.113-3.621.469-6.539 2.52-9.578 4.281-3.387 1.934-6.426 4.395-9.988 6.152-1.285.586-2.453 1.523-3.738 2.285-.469.293-1.109.762-.816-.469.992-.586 1.984-1.23 2.977-1.875 3.973-2.52 7.945-5.156 11.859-7.797 2.16-1.934 4.672-3.34 7.125-4.863 1.227-.703 2.922-.703 4.496-.586zm0 0"/><path fill="#e6d9e0" d="M189.137 184.805c-.176-.352-.469-.293-.762-.293-8.234.293-15.945-2.109-23.539-4.863-3.328-1.23-6.602-2.637-9.402-4.863-.117-.996.582-.703 1.109-.703 2.918 1.641 5.957 3.105 9.055 4.336.465.234 1.051.352 1.574.41 4.266 1.465 8.703 2.578 13.086 3.633a6.25 6.25 0 0 1 1.461.176c1.926.352 3.855.469 5.781.469.527.117 1.109-.059 1.578.234-.059.527.699.938.059 1.465zm0 0"/><path d="M186.859 163.531c1.516 1.992 3.68 1.758 5.723 1.406 1.051-.117 1.867-.234 2.688.527s1.926.234 2.859.469c.645.586 1.695.879 1.461 2.109-.289.352-.641.469-1.051.527-2.277-.117-4.613.41-6.832-.352-.586-.586-.82-1.348-1.754-2.051.352.996 1.168 1.113 1.461 1.699-.992 1.582-2.57.762-3.914.938-.41-.117-.816-.234-1.227-.469-.234-.176-.352-.352-.293-.645-.059-.937.059-3.691.879-4.16zm0 0" class="E"/><path fill="#d16b30" d="M236.566 115.18c.059-.703 1.051-1.172.699-2.051.117-.41.527-.176.762-.352 1.051-1.113 3.621-.352 4.73 1.406 1.168 1.641 0 2.813-.82 4.105-.934 1.523-1.984 2.93-3.035 4.395-.41.527-.816 1.113-1.637 1.055-.523-.117-1.051-.293-1.168-.937 1.52-2.109 3.27-4.102 4.207-6.508-1.812 1.762-2.453 4.457-4.441 6.156-.816 0-1.402-.352-1.633-1.172 1.457-1.758 2.918-3.578 4.086-5.687-.816-.117-1.109 1.113-1.867.41-.117-.293-.059-.527.117-.82zm0 0"/><path fill="#ecebe8" d="M232.535 186.738c1.168-2.227-.586-2.871-1.984-3.75 1.75-.059 3.445.117 4.906 1.113 2.336 2.285 5.195 3.926 7.824 5.746 3.621 2.461 7.359 4.688 10.809 7.441-2.223-.762-4.09-2.227-6.074-3.34-3.625-2.051-6.895-4.75-10.809-6.215-.875-.293-1.75-.645-2.687-.703-.992-.059-1.574.293-1.984 1.172-.469-.527-.469-.996 0-1.465zm0 0"/><path fill="#f0ab08" d="M220.387 165.758c.289.234.289.527.176.879.172 1.23-.703 2.168-1.172 3.223l-4.496 8.324c-1.926 3.047-4.266 5.625-7.945 6.445-.992-.059-1.984.117-2.977-.117-1.344.117-2.512-.293-3.738-.82-.352-.469-.41-.937-.117-1.465.293-.293.699-.352 1.109-.293 4.438 1.406 8.063.059 10.98-3.516 2.105-2.578 3.68-5.449 5.141-8.383.703-1.523 1.285-3.105 2.453-4.277.234-.117.41-.059.586 0zm0 0"/><path fill="#e3893a" d="M125 123.445c-1.637-1.348-2.57-3.223-3.797-4.863-.699-.941 1.578-3.754 1.871-3.637-.059.879.699 1.23 1.051 1.816 1.109.352 1.402 1.352 1.926 2.172 1.402 2.52 3.387 4.453 5.023 6.738.645.82 1.52 1.523 1.754 2.578-1.109.293-1.402-.762-2.047-1.172-.523-.527-1.051-1.055-1.633-1.465s-.937-1.055-1.227-1.641c-.469-.937-.996-1.699-2.047-.586-.234.234-.582.234-.875.059zm0 0"/><path fill="#732c25" d="M146.145 164.352l-1.578.996c-1.227.762-1.926.586-1.809-.996.117-1.816.059-3.516-.82-5.156-.23-1.348.762-1.934 1.578-2.695.762-.469 1.402-.176 1.988.352 2.043 1.758 2.336 5.391.641 7.5zm0 0"/><path fill="#60615e" d="M166.824 214.93c-.879-.527-.586-1.406-.645-2.109l-.059-4.98 1.168-2.113c.82-2.344 1.93-4.512 3.797-6.211.816.059 1.754-.176 2.16.879-1.109 1.113-1.574 2.578-2.16 3.984-.352.703-.523 1.523-1.227 2.051-.816 1.352-1.402 2.875-1.867 4.398-.645.938-.059 2.051-.41 2.988l-.758 1.113zm0 0"/><path fill="#e44a41" d="M176.926 143.605c1.172-.703 2.629-.586 3.684-1.582 2.043.762 3.68-.176 5.195-1.523l1.227-.586c1.871-1.23 3.973-1.934 6.078-2.754 2.512-.645 4.789-1.996 7.301-2.758.523-.352 1.168-.234 1.75-.469 2.047-.527 2.047-.527 2.164 1.816-.703-2.285-1.93-.82-2.98-.352-4.207 2.348-8.703 4.164-13.316 5.57-2.398 2.344-5.082 3.809-8.531 3.34-.523.41-1.109.469-1.691.293-.41-.176-.934-.352-.879-.996zm0 0"/><path fill="#b74a2b" d="M146.145 164.352c.586-1.934 1.109-3.867 0-5.859-.641-1.055-1.227-1.992-2.629-1.992.875-1.348 1.695-1.465 2.629-.293 1.637 2.051 1.813 4.57 1.344 6.855-.469 2.578.934 4.102 2.16 5.742 1.461 1.934 3.039 3.754 5.023 5.16.234.176.234.527.352.82v1.406c-.117.059-.234.059-.352.059-3.68-2.812-6.191-6.566-8.234-10.668-.234-.41-.293-.762-.293-1.23zm0 0"/><path fill="#d16e3d" d="M150.527 141.32c-.762.762-1.344.527-1.871-.293-.699-1.172-1.695-2.051-2.687-2.988-.875-.879-1.867-1.113-2.977-.352-1.055.703-1.637 1.406-.41 2.578.699.645 1.461 1.465 1.695 2.52-.059.059-.176.059-.234.117-.879-.176-1.285-.879-1.871-1.406-1.168-1.172-2.336-2.344-2.918-3.926-.059-.352.059-.703.465-.82 1.52.41 1.871-1.117 2.688-1.762 1.754-.879 3.215-.41 4.441.941 1.516 1.582 2.801 3.34 3.68 5.391zm0 0"/><path fill="#b76040" d="M207.184 184.453c1.344-1.055 3.098-1.465 4.324-2.754 1.867-1.816 3.27-3.984 4.496-6.27l4.559-8.793c.465.527.992.996.816 1.816-1.988 2.754-3.039 6.039-4.848 8.91-1.578 2.52-3.332 4.863-5.957 6.387-.762.41-1.52.82-2.453.762-.293.117-.645.176-.937-.059zm0 0"/><path d="M159.113 154.684c-.059.059-.117.059-.176.117-.762.586-1.109-1.117-1.695-.41-.699.996-1.402 2.051-1.461 3.281-.059 1.172-.289 2.285-.758 3.34-.699.176-.586-.41-.586-.762 0-1.113-.758-1.875-1.168-2.812-.406-.996-.992-1.875-1.457-2.812-.117-.469-.117-1.059.348-1.352 1.109-.762 1.52-2.051 2.277-3.047.176-.117.352-.176.527-.117.758.234 1.051.938 1.461 1.582.352.586.758 1.113 1.52 1.172.465.527.934 1.117 1.168 1.82zm0 0" class="G"/><path fill="#666762" d="M151.637 202.27c-.703 1.172-.234 2.461-.352 3.75-.117 1.469.293 3.051-.293 4.516l-1.633 2.109c-.82-.176-.527-.879-.527-1.348l-.059-6.742c1.227-1.992 2.336-4.102 4.496-5.332.469.176.586.469.234.82l-1.867 2.227zm0 0"/><path fill="#636361" d="M207.301 214.227c-.582-1.406-.41-2.871-.41-4.277 0-.703.293-1.465-.348-2.051l-1.812-3.402c-1.168-1.23-1.984-2.637-2.043-4.336a.87.87 0 0 1 .875-.586c1.578 1.23 2.16 3.223 3.273 4.746.582 1.348 1.809 2.344 1.926 3.93-.293 2.461-.059 4.98-.699 7.383l-.762-1.406zm0 0"/><path fill="#666961" d="M185.105 217.684c-1.109-1.23-.469-2.812-.758-4.219l2.566-18.168c.41-.234.703-.234.703.352l.059 2.461c.41 1.465-.117 2.754-.703 3.984-.875 2.109-.289 4.395-.758 6.566-.586 2.988-.758 6.035-1.109 9.023zm0 0"/><path fill="#f2e4cc" d="M202.16 133.934c-.406.41-.934.703-1.52.703-.875.41-1.75.586-2.684.352-.234-.059.059-.059-.176 0-4.672 1.059-9.695.645-13.844 3.695-.527.41-1.051.762-1.578 1.113.41-2.637 2.336-4.223 5.082-4.457 3.914-.352 7.887-.645 11.508-2.578.523-.293.875-.176 1.285.117.641.41 1.168.938 1.926 1.055zm0 0"/><path fill="#616361" d="M225.758 208.309c.645 2.52.703 4.98-.348 7.441l-2.98-4.512c1.754-1.406.699-3.516 1.168-5.395 1.051.586 1.461 1.703 2.16 2.465zm0 0"/><path fill="#e44d41" d="M167.113 155.152c.82-.469.41-1.113.117-1.586-.641-1.113-.117-1.816.82-2.227 1.109-.469 1.633.293 1.984 1.172.758 2.113.816 4.398.586 6.625-1.344-1.172-2.398-2.578-3.508-3.984zm0 0"/><path fill="#2981b6" d="M235.863 149.465c-.117.352-.234.703-.699.586-2.047-.469-3.973.234-5.898.586-.41-.234-.41-.645-.352-1.055.523-.586.352-1.523 1.109-1.934 3.152-1.523 4.848-.996 5.84 1.816zm0 0"/><path fill="#2e83b6" d="M247.313 164.762c-.758-.996-.176-2.168-.352-3.223-.172-.703-.23-1.406-.699-2.051l-.41-1.406c2.164-.059 3.68.938 4.031 2.637.41 1.875-.352 3.047-2.57 4.043zm0 0"/><path fill="#2f81b8" d="M242.875 173.262c.875-1.82 2.629-2.992 3.094-5.043.059-.293.176-.586.234-.879 1.813 1.465 2.277 3.164 1.285 4.809-.758 1.23-2.922 1.758-4.613 1.113zm0 0"/><path fill="#444342" d="M195.676 121.922c.293-.879.176-1.523-.816-1.992s-1.867-1.113-2.746-1.699c-.816.176-1.344 2.227-2.16 3.105.293 2.344-2.277 2.578-3.914 1.523-.699-.41-1.285-.996-1.051-1.934.641-2.344 3.738-.352 4.613-.117l1.695-3.344c.641-2.227.582-2.227 2.512-.937l1.227.82c2.688 1.703 2.746 1.703 1.109 4.633-.117.117-.293.117-.469-.059zm0 0"/><path fill="#494645" d="M195.676 121.922c.176.059.352.059.469.059-.41 1.113-.758 2.285-1.344 3.34-.582 1.289-1.75 1.055-2.863.82-3.445-.703-1.984-4.98 1.172-3.105 1.691.996 2.16.41 2.566-1.113zm0 0"/><path fill="#d5cbd6" d="M190.598 176.953c-1.285 1.523-1.113 3.633-2.164 5.215-.176.176-.348.176-.523.059-.645-1.758-.41-3.516-.234-5.098-1.93 1.23-3.387 3.574-5.727 4.922a.83.83 0 0 1-.699-.352c0-.527.352-.82.641-1.172 1.52-1.758 3.273-3.223 4.852-4.863.348-.352.758-.762 1.398-.703.176.059.352.176.41.352v.586 4.277-4.219c.703-.703.645-2.227 2.219-1.875.176.234.234.527.293.82 0 .762.117 1.465-.465 2.051zm0 0"/><path fill="#f1b104" d="M190.598 176.953l.055-2.109c.41-.234.703.059.938.352 2.043 2.695 4.672 4.746 7.652 6.387.059.176 0 .352-.117.527-.645.645-1.285.527-1.988.176-2.453-.645-3.973-2.52-5.605-4.219l-.934-1.113zm0 0"/><path fill="#444342" d="M130.141 177.422c.582.879.816 1.758.059 2.695-.875.996-1.988 1.523-3.273 1.23-1.109-.234-1.516-.996-.934-2.051.41-.762 1.051-1.348 1.93-1.523.758-.234 1.457-.293 2.219-.352zm0 0"/><path fill="#2d83b9" d="M244.277 154.625c-1.695-.703-2.746-2.348-4.383-3.227.469-1.582 1.109-1.875 3.328-1.465 1.813.996 2.105 2.344 1.055 4.691zm0 0"/><path fill="#71726d" d="M186.973 202.094c-.523-1.465 1.055-2.52.703-3.984l1.52 13.07-.117 4.102c-.992.117-.234-.82-.645-1.055l-.875-10.082c-.059-.703.059-1.523-.586-2.051zm0 0"/><path fill="#42403f" d="M238.727 137.629c.41 1.172-.176 1.875-1.109 2.402-1.051.527-2.16.645-3.215.059-.934-.645-.758-1.523 0-2.168.996-.879 2.164-1.348 3.566-.762.406-.176.582.117.758.469zm0 0"/><path d="M250.992 181.875c-.234 2.285-1.867 3.223-3.973 2.227-.758-.41-1.457-.879-1.227-1.875.176-.82.938-1.055 1.695-1.172 1.168-.176 2.16.352 3.152.82.117-.234.234-.176.352 0zm-115.304-5.918c.938 2.168-.582 4.277-2.918 4.043-1.344-.117-1.871-1.23-1.168-2.344.641-.937 1.461-1.465 2.629-1.465 1.516-.645-.117-1.465.059-2.168-.293-1.23-1.113-1.289-2.164-.996-5.547 1.523-1.984 1.23-1.984 4.395-.703.41-1.461.352-2.219.352 4.672-1.23-4.441-5.215 1.75-6.449l1.637-.293c.875-.176 2.043-1.758 2.57.41.293.59.523 1.234.758 1.82.586.82.82 1.758 1.051 2.695zm0 0" fill="#41403f"/><path fill="#e87967" d="M176.926 143.605l.703.703c-.352.645-.992.879-1.637 1.113l-8.996 2.988c-.465.176-1.051.352-1.574.059-.996.176-1.93.352-2.922.293.117-.527.699-.469 1.051-.762l13.375-4.395zm0 0"/><path fill="#41403f" d="M162.852 135.457c-.762.117-1.52.176-1.93-.645-.293-.762 0-1.465.586-1.992.758-.762 1.691-1.23 2.805-1.172-.117-.937-2.281-4.512-2.98-5.566l2.688-.352c1.109-.234 1.984-.176 2.102 1.172.117 1.582-1.168.762-1.809 1.055-.586.234-.703.586-.41 1.23 1.051 2.227 3.094 5.742-1.051 6.27zm0 0"/><path fill="#86847e" d="M153.504 200.043c-.059-.234-.176-.469-.234-.703-.289-.879.469-1.113.938-1.523.992-.937 1.809-2.227 3.094-2.93l7.07-7.797.348.352c-3.445 4.457-7.359 8.5-11.215 12.602zm0 0"/><path fill="#2981b6" d="M231.016 176.367c1.813.41 3.68.469 5.492-.059-.469 1.055-.176 2.578-1.754 2.988-.641-.059-1.344 0-1.984-.117-1.578-.293-2.16-1.289-1.754-2.812zm0 0"/><path fill="#f4dea5" d="M160.98 150.227c-2.043-1.172-2.453-3.516-3.68-5.273-1.168-1.758-2.043-3.691-3.035-5.566.523-.527 1.051-.352 1.344.234 1.574 3.633 3.969 6.855 5.371 10.605zm0 0"/><path fill="#464442" d="M195.852 189.672c1.285 1.406 1.285 3.398 2.164 4.98.348.645.523 1.348.758 2.051.586 1.055 1.051 2.109-.352 2.988l-.816-1.816c-1.168-1.582-1.637-3.398-1.754-5.332.059-.117 0-.234-.059-.293l.059-2.578zm0 0"/><path fill="#2880b9" d="M222.898 171.031c.816 1.176 1.809 2.23 3.035 2.992.469.293.992.527 1.051 1.172l-.641.352c-1.93.469-3.156.117-3.855-1.172-.699-1.172-.758-2.344.41-3.344zm0 0"/><path fill="#ac6143" d="M237.383 123.504c2.57-1.992 3.797-4.98 5.551-7.562.465-.645-.937-1.113-.176-1.758.234.703 1.109.996 1.109 1.875 0 .469-.059.879-.586 1.055l-1.168 1.586c-.176.586-.289 1.289-.992 1.523l-1.754 2.52c0 .645-.465.879-.934 1.113-.406.703-1.227.645-1.809 1.113 0-.234 0-.469-.059-.645.059-.469.465-.645.816-.82zm0 0"/><path fill="#494645" d="M241.004 132.82c.117.879-.176 1.172-1.109.879-1.168-.352-2.98.41-2.98-1.875v-.703l3.391.352c.816.117.641.762.699 1.348zm0 0"/><path fill="#4d4c4b" d="M251.344 178.477c0-.82.059-1.699.41-2.578.875.469 1.516.996 2.336 1.348 1.051.469 1.344 1.055.758 2.109-.758 1.348-1.285-.059-1.926-.117-.117 0-.293-.234-.41-.352-.293-.41-.875 0-1.168-.41zm0 0"/><path d="M132.77 188.145c-2.219 2.23-5.023 3.637-7.652 5.336-1.344.938-2.512 2.168-4.207 2.461 1.344-1.582 3.273-2.461 5.023-3.574 2.219-1.465 4.266-3.344 6.836-4.223zm0 0" class="C"/><path fill="#20739d" d="M222.898 171.031c-1.168 2.758.348 4.867 3.445 4.516-1.695.996-3.156.762-4.324-.703-1.109-1.348-.934-2.93.469-4.574.117.293.234.527.41.762zm0 0"/><path fill="#78322a" d="M149.883 149.465c-.059-.352-.059-.703-.059-1.055.992-.176 1.871-.82 2.98-.82.641.469.758 1.113.699 1.816-1.051 1.934-1.926 2.051-3.621.352v-.293zm0 0"/><path fill="#b36e48" d="M229.266 150.637c-.703-.469-.469-2.578-1.055-3.105-1.109-1.875-2.918-3.105-4.262-4.746.059-.41.234-.645.641-.703.703.703 7.711 5.977 4.676 8.555zm0 0"/><path fill="#4b362b" d="M116.473 117.875c1.926.121 2.16.531 1.52 2.934-1.168.117-1.93-.41-2.223-1.465-.172-.586-.406-1.41.703-1.469zm0 0"/><path fill="#dd9640" d="M237.383 123.504c-.059.469-.352.703-.816.82l-3.738-2.461c.176-.469-.059-.996.348-1.406.293-.234.586-.059.82.176.176.176.293.352.352.586.465.41.992.762 1.516 1.113.293-.059.41.059.352.352l1.168.82zm0 0"/><path fill="#44332a" d="M119.449 122.332c1.344-.762 2.398-.762 2.629 1.113-.406 1.406-1.051 1.641-1.926.762-.469-.527-.703-1.172-.703-1.875zm0 0"/><path fill="#16709d" d="M231.016 176.367c-.117 1.641.875 2.285 2.277 2.52.469.059 1.109-.176 1.461.41-2.805 1.113-4.672-.059-4.848-3.047.352.059.703.059 1.109.117zm0 0"/><path fill="#b4612a" d="M139.836 136.164c.176.234.176.469-.059.703-.293.176-.293.41-.293.762-.641.176-.875-.293-1.168-.703-.992-1.055-1.75-2.348-2.859-3.344-.352-.293-.82-.703-.586-1.289-.059 0-.059-.059-.117-.059-1.051-1.348-2.453-2.227-3.328-3.691-.352-.527-.992-.996-.527-1.758.82.234 1.051 1.23 1.93 1.465 1.227 1.406 5.723 7.621 7.008 7.914zm0 0"/><path fill="#cf7c43" d="M233.938 120.867l-.762-.41c0-.234-.059-.469-.059-.645.059-.234.293-.293.469-.469l1.813-2.699c.176-.176.23-.41.348-.586l.82-.879v.82c-.059 2.055-1.168 3.578-2.629 4.867zm0 0"/><path fill="#d36e3e" d="M157.945 152.863c-.527.762-.996.352-1.344-.176-.586-.762-1.051-1.582-1.578-2.402.059-.469.059-.937.699-.762l2.223 3.34zm0 0"/><path fill="#d85142" d="M180.609 160.602c-.117-.527.992-.352.641-1.348-.293-.879 1.051-.879 1.578-.586.758.469 1.461.469 2.219.527-1.402.703-2.922 1.055-4.437 1.406zm0 0"/><path fill="#cf7c53" d="M155.723 149.523l-.699.762h-.352c-.816.352-.992-.176-1.109-.82-.117-.82-.352-1.699.703-2.109.758.527 1.109 1.348 1.457 2.168zm0 0"/><path fill="#83382c" d="M139.777 136.867c.059-.234.059-.469.059-.703.762-.531 1.637-1 2.57-1.176.059 1.059-.816 1.586-1.344 2.289-.582.703-.934-.059-1.285-.41zm0 0"/><path fill="#9e9893" d="M238.434 123.855a2.92 2.92 0 0 1 .934-1.113c.645.293 1.344.41 1.23 1.348-.117.527-.41.996-.879 1.113-.992.176-.641-1.113-1.285-1.348zm0 0"/><path fill="#9f9a96" d="M241.121 120.223l.992-1.523c.059.117.059.293.176.293.586.234 1.109.586.82 1.348-.117.41-.234.82-.762.938-.875.234-.758-.703-1.227-1.055zm0 0"/><path fill="#9a9392" d="M243.281 117.113l.586-1.055c.469.352 1.578-.234 1.52.938 0 .527-.117 1-.645 1.234-1.051.527-.816-.941-1.461-1.117zm0 0"/><path fill="#196fa1" d="M243.223 149.934c-1.227.234-2.684-.059-3.328 1.465-.527 0-.934-.234-1.051-.762 1.285-1.348 2.688-1.816 4.379-.703zm0 0"/><path fill="#f0b510" d="M197.137 182.285c.703-.059 1.402-.059 1.988-.41.523-.41.875-.176 1.109.352v1.465c-1.109-.234-2.219-.527-3.098-1.406zm0 0"/><path fill="#604132" d="M123.891 113.773v-2.461c.523 0 .875.352 1.168.703.352.527.582 1.113.293 1.699-.41.703-.937.059-1.461.059zm0 0"/><path fill="#8e8b88" d="M235.746 116.059c0 .293.059.527-.348.586-.352-.645-1.812.586-1.637-.937.059-.469.352-.996.875-1.055.992-.117.469 1.172 1.109 1.406zm0 0"/><path fill="#5d3c2e" d="M126.051 118.934c-.934-.41-1.344-1.352-1.926-2.172 1.516-.41 2.102.176 1.926 2.172zm0 0"/><path fill="#9b958c" d="M233.586 119.344l-.469.469c-.582.234-1.227.469-1.34-.527-.059-.527.23-.996.699-1.172 1.227-.414.527.938 1.109 1.23zm0 0"/><path fill="#9a9892" d="M238.027 112.777c-.176.352-.469.293-.762.352-.465.234-1.051.645-1.344-.117-.234-.586.117-1.23.703-1.465.816-.293.816.469.992.938 0 .117.234.176.41.293zm0 0"/><path fill="#4f4e4c" d="M251.344 178.477c.41.059.875-.059 1.168.41-.875-.176-.758.586-.934 1.055l-.586 1.934h-.352l.703-3.398zm0 0"/><path d="M170.969 190.082c.059.117 0 .234-.059.293-1.402-.176-3.035 0-3.68-1.82l.059-.059c1.344.352 2.629.703 3.68 1.586zm0 0" class="C"/><path fill="#f7cc4d" d="M188.086 160.309c.23.117.465.234.699.41-.758.586-.758 1.875-1.871 2.168 0-1.055.762-1.699 1.172-2.578zm0 0"/><path fill="#d0545a" d="M188.027 182.168h.406c.586.176.762.586.645 1.172-.41.352-.937.469-1.461.176-.293-.586-.586-1.172.41-1.348zm0 0"/><path fill="#8e4b3c" d="M154.266 147.355c-.234.527-.762 1.055-.352 1.758-.176.176-.234.41-.41.527-.176.059-.293 0-.352-.176l-.348-1.875c.406-.352.875-.586 1.461-.234zm0 0"/><path fill="#716f6d" d="M238.727 137.629l-.758-.469c.348-.762-.586-1.527.23-2.641l.527 3.109zm0 0"/><path fill="#b38a6d" d="M207.184 184.453c.352 0 .645.059.938.059-1.402.586-2.805.586-4.148 0l3.211-.059zm0 0"/><path fill="#868a86" d="M188.434 214.227l.645 1.055c0 .762.348 1.582-.293 2.227l-.352-3.281zm0 0"/><path d="M208.762 208.25c-.758-1.176-1.754-2.289-2.219-3.695-.234-.293-.234-.586.117-.762.176-.059.641.352.406-.469-.582-1.582-1.75-3.105-.816-4.98.641-.762.352-1.875.992-2.637 0-.41.059-.762.059-1.113-.117-1.992.293-2.227 2.219-1.348 3.098 1.406 5.668 3.574 8.473 5.508.406.293.758.645 1.75.82l-4.379-4.746-3.098-3.34c-.293-.352-.699-.645-.176-1.055 3.914 3.223 6.836 7.383 10.164 11.133.41.41.992.762.992 1.465l-12.906 4.809c-.527.234-.992.469-1.578.41zm0 0" class="F"/><path fill="#5f5f5d" d="M242.758 199.75c-.527 1.699.234 3.633-.992 5.156l-7.012-7.09c-1.75-.879-2.746-2.637-4.203-3.809-1.113-.937-2.047-1.992-3.039-3.047-.41-.41-.992-.82-.527-1.586 1.461-1.055 3.098-1.582 4.906-1.113.762 1.113-.582.82-.875 1.41 1.461 1.406 3.156 2.578 4.789 3.867.82.645 1.754 1.172 2.164 2.227l4.789 3.984zm0 0"/><path fill="#f3f4f1" d="M239.543 206.781c-3.621.176-7.184 1.059-10.746 1.469 0-.176-.059-.41 0-.469 4.09-1.41 8.293-2.172 12.676-1.645.117 0 .176.176.234.234-.703.117-1.52-.234-2.164.41zm0 0"/><path fill="#d4d4d0" d="M226.984 189.672l7.77 8.145c-.875 1.113-1.402.527-1.867-.352-.117-.879-.762-1.406-1.402-2.051-1.812-1.816-4.09-3.34-5.316-5.742.234-.824.527-.297.816 0zm0 0"/><path fill="#e8ae0a" d="M200.934 165.875c.234-.117.586-.176.645-.352.699-2.168 2.57-3.516 3.855-5.215.934-.176 1.227.645 1.691 1.113a5.07 5.07 0 0 0 1.813 1.172c.41.293 1.109.352.934 1.113-1.52.469-2.805 1.172-3.094 2.988.465.352 1.168.059 1.691.293.645.234 1.227.469.527 1.289-2.16.234-4.266.762-6.426-.059.059-.586-.527-.586-.816-.82-.469-.41-1.227-.645-.82-1.523zm0 0"/><path fill="#c66c28" d="M212.031 150.578c-.059.469-.758.586-.699 1.172-.293.293-.41.762-.816.996-2.98.879-3.797 2.055-3.855 5.277-.059.293-.059.527-.176.82-.176.469-.469.879-1.051.703-1.344-1.406-.879-2.988-.352-4.453 1.168-3.168 3.738-4.34 6.949-4.516zm0 0"/><path fill="#c3763a" d="M205.434 159.547c.348-.176.641-.41.758-.82 1.227 1.113 2.746 1.816 3.27 3.516-.113.352-.113.82-.699.645-1.695-.117-2.16-1.816-3.328-2.578v-.762zm0 0"/><path d="M188.027 140.969c3.621-1.992 7.535-3.223 11.273-4.863.641-.297 1.34-.473 2.043-.707-1.812 1.82-3.621 3.695-6.25 4.457.234.703-.234 1.172-.527 1.699-.641 1.172-1.457 2.168-2.219 3.281-1.168 1.758-.816 2.52 1.227 3.047.703.645 1.051 1.582 1.695 2.227.293.41.699.762.875 1.289 0 1.23 1.227 1.23 1.871 1.875-1.52 1.41-3.391 1.996-5.141 2.934-.996-1.055-2.047-.234-3.039 0-.117-.117-.117-.176-.059-.234 0-.117.059-.176.059-.176 1.285-.762 2.102-1.758 1.168-3.344-.117-.059-.176-.117-.234-.117-.23-.293-.348-.762-.699-.82-1.168-.293-1.871-.645-.758-1.875.289-.293.23-.762-.117-.937-.469-.352-.82.117-1.168.293-.469.234-.937.586-1.52.117v-.352c.176-.352.352-.586.758-.41.82-.586 1.754-1.113 1.871-2.344 0-.469.117-1.055-.352-1.348-.469-.41-.699.234-1.109.352-.234.059-.527.234-1.051.234 2.336-.996 2.043-2.578 1.402-4.277zm0 0" class="K"/><path fill="#d2322c" d="M165.422 148.469l12.207-4.16h1.867c.117 1.934 1.93 3.223 2.047 5.508-3.332-1.113-6.719-1.113-10.047-1.055-1.344 0-2.687-.059-4.031.293-.641.176-1.695.586-2.043-.586zm0 0"/><path fill="#e34a3e" d="M186.508 149.113l1.52-.352c.699 1.348.992 2.871 1.633 4.277 0 .41-.289.645-.523.941l-1.988.293c-.406.059-.816-.469-.758-.648 1.051-1.699-1.871-2.109-1.168-3.574.234-.41.875-.645 1.285-.937zm0 0"/><path fill="#e34a3f" d="M187.266 148.352a3.13 3.13 0 0 1-.758.41c-.645.293-1.402.703-1.988-.059-.289-.41-.523-1.113-.406-1.582.289-.82 1.402-1.055 1.984-.996 1.285.059 1.168 1.289 1.168 2.227zm0 0"/><path fill="#e34a3d" d="M189.836 155.797v.41c-.41.293 0 1.582-.465 1.172-.645-.527-1.695-.879-1.871-1.934-.059-.645.527-.762.934-.937 1.109-.469.938.527 1.168 1.055.059.117.176.176.234.234zm0 0"/><path fill="#e44a3f" d="M183.762 146.066c.234-1.055.875-1.406 1.754-1.289.23 0 .523.293.406.469-.523.703-1.227.996-2.16.82zm0 0"/><path d="M189.137 153.98c0-.297.059-.59.348-.766.352-.586.645-1.23 1.52-.762-.176 1.172-1.051 1.352-1.867 1.527zm0 0" class="K"/><path fill="#eceae7" d="M179.379 193.363c1.871-.059 3.742.586 5.668.41 1.109-.117 1.227.645 1.109 1.465l-1.227 8.73c-.352 1.816-.176 3.754-.934 5.629-.645-.527-.41-1.23-.41-1.816-.117-3.168-.293-6.273-1.227-9.32-.758-2.461-1.637-2.695-3.68-1.113-.234.176-.527.293-.758.469-.469-1.816 0-3.281 1.457-4.453zm0 0"/><path fill="#4e4949" d="M173.188 200.395c-.699-.586-1.633-.234-2.336-.645-1.168.293-1.75-.645-2.453-1.172-.699-.996-.176-1.992-.059-2.988.352-.996.938-1.23 1.871-.703 1.227 0 2.219.703 3.328 1.172.992.703 2.16.762 3.332.645.816 1.23-.527 2.461-.059 3.75-.059.996-.82.586-1.344.703-.762-.176-1.812.469-2.281-.762zm0 0"/><path fill="#e9e9e9" d="M173.188 200.395l2.281.762c-1.93 1.465-2.805 3.809-4.324 5.625-.234.293-.234.707-.641.824-.527-.234-.117-.941-.645-1.176l2.102-5.273c.234-.586.645-.82 1.227-.762zm0 0"/><path fill="#434140" d="M176.813 200.453c-.645-1.289-.176-2.52.059-3.75.816-2.109 1.109-4.453 2.625-6.27.117.996.059 1.934-.117 2.93-.699 1.406-1.227 2.871-1.457 4.453-.41.879-.996 1.641-1.109 2.637zm0 0"/><path fill="#d78440" d="M134.988 132c.293 1.523 1.695 2.227 2.57 3.34.582.707.992 1.762 1.926 2.289l2.922 3.691c.527.879 1.461 1.406 1.695 2.109-.059 0-.176-.293.176-.645 1.168.703 1.574 2.051 2.453 3.105l-1.227-.703c0 .938 1.516 1.465.641 2.461.176.234.234.469 0 .762-.758.41-1.109-.117-1.402-.645-.352-.527-.641-1.055-1.227-1.23-1.52-.586-2.043-1.992-2.805-3.164-.289-.762-.934-1.23-1.227-1.934-.059-.059-.059-.176-.059-.176-.289-.293-.172.059-.23.117-.059.293-.234.527-.469.703-.117 0-.234 0-.352-.059-2.395-3.867-5.371-7.328-8-11.078l-5.375-7.5c.176-.059.352-.117.469-.234 1.691-1.465 1.75-1.465 2.859.703 0 .293-.758-.117-.465.293.348.469.523 1.523 1.574 1.113.645.352 1.113.82 1.461 1.465.527 1.406 1.461 2.52 2.57 3.457.645.527 1.168 1.055 1.52 1.758zm0 0"/><path fill="#a89ead" d="M165.422 178.828c-3.039-1.465-6.426-2.227-8.879-4.746 1.051.234.406-.82.816-1.113 1.52-1.172 2.746-2.641 4.09-4.047.816-.82 1.578-.937 1.926.234.762 2.875 2.223 5.453 2.629 8.441a2.04 2.04 0 0 1-.582 1.23zm0 0"/><path fill="#df853f" d="M141.004 143.195l2.512 3.34c.176.938.82 1.582 1.402 2.285.352.469.352.82-.059 1.113-.41.41-.582-.176-.758-.41-1.344-1.348-2.336-2.988-3.449-4.512-1.281-1.758-1.574-1.699-2.566.176l-.82 1.348c.117-1.875 1.578-2.93 1.461-4.453 0-.293.059-.586.352-.762.934.352 1.285 1.23 1.926 1.875zm0 0"/><path fill="#d3c9d5" d="M165.77 177.715l-2.629-8.031c-.289-.937-.523-1.523-1.457-.352-.996 1.23-2.223 2.289-3.273 3.52-.406.469-.641.293-1.051.117 0-.176-.059-.293-.059-.41.352-1 1.344-1.41 1.93-2.23.875-.996 1.633-2.168 2.977-2.578.41-.059.762-.059 1.168.117 1.402 3.105 2.922 6.215 2.922 9.789-.176.176-.293.176-.527.059zm0 0"/><path fill="#cabac8" d="M159.461 170.68c-.523.879-1.457 1.234-2.16 1.879-.059-.117-.117-.234-.117-.352l1.93-6.332c1.168-.469 1.516-.117 1.344 1.113-.176 1.289-.762 2.402-.996 3.691zm0 0"/><path fill="#dc843e" d="M153.152 161.363l.996 2.754c-1.52-1.348-2.164-2.871-3.039-4.16-.699-1.113-1.578-2.168-2.16-3.34-.176-.352-.645-.762-.293-1.172.527-.586.703.469 1.227.41.469-.117.527.234.703.527.406 1.348 1.168 2.578 2.102 3.633.352.352.758.762.465 1.348zm0 0"/><path fill="#d98540" d="M153.152 161.363l-.699-1.055c-.816-1.23-1.344-2.637-2.277-3.75 0-.293-.059-.586-.293-.703 0-.82-.934-1.406-.41-2.289.117-.117.293-.117.469-.059.469.238.758.648.992 1.176.41 1.172 1.051 2.285 1.754 3.34.582 1.406 1.637 2.578 1.984 4.102v.762c-.816-.234-.758-1.289-1.52-1.523zm0 0"/><path fill="#a2482a" d="M149.824 153.566c-.117 0-.234.059-.352 0-.523-1.055-1.344-2.051-1.516-3.281-.234-.469-.469-.937-.352-1.523.117-.527.234-.937.758-.293.293.352.527.703.762 1.055.758.879 1.461 1.758 1.691 2.93 0 .117-.059.293-.176.41-.289.234-.523.527-.816.703zm0 0"/><path fill="#9d4429" d="M147.605 148.762c.523.41.352.996.352 1.523-.879-.352-.996-1.465-1.812-1.875v-.762l1.461 1.113zm0 0"/><path d="M222.43 156.383l-1.461 2.754c-.465.645-1.402.41-1.926.996-.645.645-.703 1.641-1.402 2.227-.762.352-1.637 1.523-2.16-.234 0-.352.059-.703.289-1.055 1.461-2.051 1.695-4.277.703-6.621-.176-.41-.234-.824.059-1.234 2.16-3.164 4.262-6.328 6.715-9.316 1.871.527 4.676 4.57 4.383 6.387-.117.82-.645 1.055-1.344 1.172h-.586c-3.738.059-4.496 1.23-3.27 4.926zm0 0" class="E"/><path fill="#7e4537" d="M209.172 162.066c-.937-1.113-2.395-1.816-2.98-3.34 0-.234.059-.41.059-.645.934-.996 1.754-2.051 2.453-3.281.352-.527.645-1.176 1.402-1.352.117-.059.234-.059.352 0 1.285.707 1.285.707 2.742-.234.469 1 1.93.352 2.281 1.469-.059.059-.117.176-.176.234-2.105 1.699-3.156 4.277-4.965 6.211-.293.352.234.879-.234 1.172-.352.176-.703.117-.934-.234zm0 0"/><path fill="#c66729" d="M209.172 162.066c.348.059.699.059 1.051.059.406-.41.875-.41 1.344-.469 3.094-.527 4.496-2.578 3.914-5.684-.059-.41-.234-.82-.059-1.23l.059-.059c.582-.293.059-1.41 1.051-1.469 1.578 3.109 1.285 6.098-.762 8.852-1.867 1.934-3.855 2.461-5.898 1.582-.352-.293-.758-.527-1.109-.762.352-.176.352-.469.41-.82zm0 0"/><path fill="#e69f15" d="M226.227 150.988c1.109 0 1.227-.586.934-1.406-.816-2.285-2.043-4.16-3.914-5.684.117-.117.176-.293.293-.41.82-.527 1.227.059 1.754.527l3.152 3.223c1.227.469.527 1.523.762 2.285.059.352.059.762.059 1.113l-2.34 1.113a.45.45 0 0 1-.465.059c-.234-.234-.527-.469-.234-.82zm0 0"/><path fill="#864f41" d="M213.199 153.215c-.699.941-1.168 2.289-2.859 1.879-.059-.469 1.227-1.113-.117-1.527-.234-.527.117-.82.406-1.172 0-.469.293-.645.703-.645.117 1.172 1.52.645 1.867 1.465zm0 0"/><path fill="#eaad36" d="M228.445 147.238c-1.227-.586-2.043-1.758-3.094-2.695-.527-.469-.992-1.113-1.812-1.055.176-.234.293-.469.41-.703 1.984.996 3.328 2.637 4.496 4.453zm0 0"/><path d="M195.852 192.543a28.41 28.41 0 0 1 1.754 5.332c-.703 0-1.051-.586-1.637-.879-2.16-1.172-3.445-.762-4.203 1.699-.703 2.285-1.52 4.629-1.52 7.148 0 .352 0 .762-.527 1.055-.699-2.227-.523-4.57-.934-6.797-.293-1.523-.117-3.223-.469-4.746-.348-1.465.527-1.523 1.402-1.582 1.52-.059 3.098 0 4.559-.352.641-.176 1.227-.293 1.574-.879zm0 0" class="J"/><path fill="#4c4949" d="M207.242 195.707c-.176.938.645 2.168-.699 2.871-.82.703-1.695 1.348-2.922 1.113a5.32 5.32 0 0 1-.816.41c-.586.703-1.344.879-2.219.645-.82-.117-2.047.645-2.164-1.055.703-.937.176-1.992.352-2.988.758-.234 1.578-.176 2.219-.703 1.461-.527 2.746-1.523 4.441-1.523.465.059.992-.352 1.457 0l.352 1.23zm0 0"/><path fill="#cdcbc9" d="M200.586 200.746c.699-.41 1.457-.586 2.219-.645l1.926 4.395c-.352.176-.582.938-1.109.234-1.051-1.289-2.395-2.344-3.035-3.984zm0 0"/><path fill="#eff0ed" d="M204.324 209.363c-2.922.762-5.844 1.465-8.879 1.523h-3.273v-.176l11.508-1.641c.176-.059.41.176.645.293zm0 0"/><path fill="#4c4a49" d="M226.984 189.672c-.289-.059-.523-.297-.816 0-.469-.117-.934.352-1.461 0-.758-1.469-.875-2.934 0-4.457 1.988.234 3.914-.117 5.844-.469 2.043-.41 2.043.586 1.984 1.992v1.465c-.059.059-.117.176-.059.293-.059.176-.117.176-.293.117-1.867-.352-3.504.352-5.199 1.059zm0 0"/><path fill="#ecebea" d="M232.184 188.613c.117-.059.234-.059.293-.117.699 1.82 2.336 2.816 3.621 4.105a21.74 21.74 0 0 0 2.102 1.816c.762.586 0 .879-.23 1.348l-8.121-6.27c.703-.883 1.754-.18 2.336-.883zm0 0"/><path d="M167.23 188.555c.992 1.176 2.57 1 3.68 1.82-.465 1.23-1.285 2.168-2.16 3.047-.758-1.23-1.871-.82-2.922-.469-4.086 1.523-7.301 4.395-10.98 7.266.293-.996.645-1.523 1.109-1.992l8.238-8.73c.934-1 1.809-1.352 3.035-.941zm0 0" class="J"/><path fill="#d0cdc6" d="M168.398 198.578l2.453 1.172c-1.051 2.109-2.219 4.102-3.562 5.977-.699-.293-.699-.703-.41-1.348l1.52-3.926c.293-.645.352-1.23 0-1.875zm0 0"/><path fill="#ecefec" d="M163.141 207.191c-3.152-.645-5.898-2.285-8.875-3.34.523-.762 1.109-.234 1.633-.059l7.07 2.695c.289.117.523.352.172.703zm0 0"/><path fill="#a9cee1" d="M228.098 154.684l1.051-.703c1.574-.414 3.094-1.059 4.848-1 2.805.176 5.082 1.234 7.008 3.227 1.52 1.523 2.336 3.398 2.805 5.449v3.164c-.41 2.109-1.344 3.926-2.687 5.566-1.285 1.234-2.863 2.055-4.496 2.699-2.453.645-4.848.586-7.129-.527h-.289c-1.461-1-2.922-2.055-3.914-3.578-2.336-3.457-2.219-7.031-.586-10.664.234-.293.469-.645.762-.996.699-.996 1.574-1.875 2.629-2.637zm0 0"/><path fill="#69a4c3" d="M224.707 158.316c-.234 1.641-.758 3.164-.816 4.863-.059 3.633 1.461 6.27 4.262 8.32.41.297.703.707 1.055 1.059-5.492-2.23-7.945-10.023-4.5-14.242zm0 0"/><path fill="#3f89b5" d="M218.809 160.016c.352-1.23 1.402-.703 2.16-.879-.641 1.934-.234 3.984-.406 5.977-2.223-1.172-2.746-2.695-1.754-5.098zm0 0"/><path fill="#2482b8" d="M226.637 151.691c.117-.059.176 0 .289.059-1.457 1.113-2.918 2.289-4.027 3.754-1.461-.586-.879-1.699-.645-2.641.41-1.348 1.578-1.699 2.805-1.641.527 0 1.051.234 1.578.469zm0 0"/><path fill="#2a738b" d="M226.637 151.691c-.586-.059-1.227-.293-1.812-.234-1.926.117-3.094 2.348-1.926 4.047-.176.293-.293.586-.469.879-1.578-.703-1.168-2.168-.992-3.285.234-1.113 1.109-2.051 2.453-2.168l2.336.059c.117.234.293.469.41.703zm0 0"/><path fill="#1f7295" d="M218.809 160.016c-.586 2.109.352 3.691 1.754 5.098l-.176.645c-.176.059-.293.117-.469.117-1.109.059-1.461-.996-2.16-1.523-.41-.703-.703-1.406-.176-2.227.352-.762.234-1.758 1.227-2.109zm0 0"/><path fill="#609aba" d="M241.004 156.207c-2.395-1.758-4.906-3.227-8.059-2.992-1.344.059-2.453.941-3.797.766 3.68-1.996 8.586-1.41 11.504 1.406.234.176.234.527.352.82zm0 0"/><path fill="#69a4c5" d="M241.004 170.328c1.051-1.699 1.988-3.34 2.57-5.215a.53.53 0 0 1 .352.352c-.586 1.934-1.109 3.867-2.922 5.156-.059-.059-.117-.117-.059-.234 0-.059.059-.059.059-.059zm0 0"/><path fill="#69a5c1" d="M243.574 161.422c-.523-1.875-1.637-3.516-2.57-5.215 2.047.996 2.277 3.047 2.922 4.863a.53.53 0 0 1-.352.352zm0 0"/><path fill="#538eb0" d="M229.496 172.559c2.453.703 4.906 1.055 7.418.293.117.117.176.176.117.293 0 .059-.059.117-.117.117-2.512.527-5.078.996-7.418-.703zm0 0"/><path fill="#65a4c0" d="M236.914 173.262v-.41l4.09-2.523v.293c-.875 1.586-2.629 1.879-4.09 2.641zm0 0"/><path fill="#75aac7" d="M228.098 154.684c-.762 1.055-1.637 1.934-2.629 2.637.348-1.348 1.285-2.168 2.629-2.637zm0 0"/><path fill="#4a8eb3" d="M243.574 161.422l.352-.352v4.395l-.352-.352v-3.691zm0 0"/><path d="M157.301 194.887l-4.031 4.453-4.496 5.215c-5.316-.879-10.687-1.699-16.062-2.285-.234 0-.469-.234-.645-.293.234-.293.469-.527.762-.762 1.574-2.051 3.328-3.926 5.84-4.863 1.813.996 2.746-.82 3.797-1.465 3.098-1.992 6.309-3.809 9.52-5.629 1.113-.586 2.512-.527 3.738-.293 1.402.352.82 1.527.527 2.289-1.109 2.637-2.746 4.98-4.379 7.266-.293.527-.762.938-.41 1.934 1.461-1.582 2.918-3.223 4.438-4.746.352-.352.527-1.23 1.402-.82zm0 0" class="F"/><path fill="#61625d" d="M138.668 196.352l-5.84 4.863c-.762-.41-.645-1.23-.82-1.875l3.738-3.047c1.813-1.992 4.148-3.34 6.309-4.98l2.512-1.879c-.059-.469-1.926 0-.699-1.172 1.285-.293 2.512-.293 3.445.703l-8.645 7.387zm0 0"/><path fill="#ecedeb" d="M116.121 200.453c-.117-.059-.816-.176-.117-.352 1.695-.469 3.445-.879 5.199-1.055l4.965-.41c.527-.117 1.285-.234 1.402.703-3.855 0-7.594.703-11.449 1.113zm0 0"/><path fill="#4e4a4a" d="M147.313 188.965c-1.227-.234-2.512-.645-3.855-.41-.348.293-.699.352-.992-.117-.059-.996 0-1.934-.41-2.871.176-.527-.176-1.113.293-1.523 2.453-.117 4.789.234 7.125.762.117.293.41.352.703.352.934 1.406.816 2.813.059 4.219-.992 0-1.988.121-2.922-.41zm0 0"/><path fill="#d0cfc7" d="M142.465 188.438l.992.117c.586.527 1.344.117 2.277.586-3.445 2.406-6.48 5.102-9.988 7.152-.934-.586-.289-.937.117-1.348 1.637-1.641 3.273-3.34 5.082-4.746.586-.469 1.051-1.176 1.52-1.762zm0 0"/><path fill="#3c3a39" d="M224.707 185.215v4.457c-2.277-1.527-4.437-3.168-6.367-5.16v-3.398l6.367 4.102zm0 0"/><path fill="#3c3a3a" d="M150.234 189.375l-.059-4.219 6.309-4.453v3.691c-1.988 1.758-3.973 3.574-6.25 4.98zm0 0"/><path fill="#fbebe8" d="M195.035 150.344c-.816-.586-1.285-1.348-1.461-2.344-.352-.469.527-1.758.816-2.285v-.41c.41-1.348-.758-2.637-.055-3.984l.758-1.465c1.754-.117 2.277.469 2.219 2.168-.059 1.055-.875 1.875-1.051 2.93l.352.703c.875-.176 1.809-.41 2.453.586.582.938.758 2.051.117 2.754-.996 1.172.582 2.461-.41 3.457-.293 0-.469-.176-.645-.41-.23-.586-.289-1.348-1.281-1.113-.645.176-1.227-.234-1.812-.586zm0-4.102c-.117.469-.176.938-.234 1.406l.176.469c.586.762 1.227 1.348 2.277 1.113-1.285-.703-1.75-1.816-1.578-3.281-.23.176-.406.293-.641.293zm0 0"/><path fill="#de5142" d="M199.125 141.027c-.176-1.465 1.168-1.582 1.926-1.641.992-.059 1.285.996 1.344 1.875.059.938-.523 1.582-1.461 1.465-.934-.059-1.809-.41-1.809-1.699zm0 0"/><path fill="#faeeed" d="M198.363 152.102c.117.117.293.234.41.352v.352c-.234.176-.527.293-.758.469-1.285 0-2.687.117-2.223-1.875 1.402-1.641 1.754.293 2.57.703zm0 0"/><path fill="#ab9dae" d="M159.461 165.055c1.227 0 1.871 1.172 2.922 1.582.352.527.059.996-.293 1.406a14.12 14.12 0 0 0-2.629 2.637c-.641-1.348.293-2.461.527-3.633.176-.82.469-1.582-.875-1.172-.059-.352.117-.586.348-.82zm0 0"/><path fill="#bd6a31" d="M154.672 162.125c-1.109-1.113-1.75-2.52-2.277-4.043 0-.059.059-.117.059-.176.117-.352.059-.762.352-1.055.406-.117.523.234.758.469 1.051.996 1.344 2.344 1.461 3.691 0 .41.059.879-.352 1.113zm0 0"/><path fill="#817e7d" d="M173.539 196.059c-1.227-.176-2.219-.762-3.328-1.172 1.344-.469 2.277.586 3.387.82.059 0 .059.117.059.176-.059.059-.117.117-.117.176zm0 0"/><path fill="#848180" d="M205.434 194.477c-1.52.41-2.863 1.406-4.441 1.523 1.344-.82 2.629-1.934 4.441-1.523zm0 0"/><path fill="#e9dcbf" d="M183.938 138.684c.582-1.816 2.395-2.168 3.797-2.461l9.168-1.879c1.172-.293 2.457.82 3.738.293-2.395 1.172-4.848 2.23-7.418 2.992-.406-.059.41-.645-.172-.469l-5.609 1.758c-.469.117-1.168.645-1.402-.234-.176-.586.41-.996.934-1.172 1.52-.586 3.098-.937 4.734-1.172-2.512.293-4.848 1.055-7.012 2.344h-.758zm0 0"/><path fill="#f2e4cc" d="M184.695 138.684c2.047-2.402 4.906-2.227 7.711-2.52-1.984 1.055-4.437.82-6.133 2.461l8.063-2.109c-.117.703-.937.527-1.113 1.113-2.102.703-3.969 1.934-6.191 2.285-.875-.293-1.984 0-2.336-1.23zm0 0"/><path fill="#b1342d" d="M185.805 140.5c-.934 2.168-3.969 3.047-5.195 1.523 1.633-2.168 3.035-2.578 5.195-1.523zm0 0"/><path fill="#e4d8b9" d="M174.648 142.785c-.758.527-1.344 1.934-2.629.82-.23-.176-.699-.293-.23-.586 2.219-1.289 4.145-3.223 7.066-2.988-1.52.762-3.215 1.055-4.555 2.051-.234.117-.703.234-.352.645.117.117.465.059.699.059zm0 0"/><path fill="#e1d1b4" d="M174.648 142.785c.992-.879 2.105-1.055 3.332-.996-1.109.352-2.047 1.172-3.332.996zm0 0"/><path fill="#d36e3e" d="M150.586 152.863c-.059-1.289-1.402-2.051-1.461-3.34.234 0 .465 0 .758-.059h-.059c1.637 2.051 2.453 2.051 3.68 0 .117-.117.234-.234.41-.352 0 .527 0 1.113.758 1.172-.523 1.23-.875 2.578-2.277 3.223-.41.238-.293.766-.352 1.176-.059.059-.172.059-.23.059-.762-.41-1.055-1.117-1.227-1.879zm0 0"/><path fill="#797775" d="M149.473 184.805c-2.395 0-4.789-.234-7.125-.762.117-.293.41-.352.703-.352 2.16.059 4.379-.059 6.422 1.113zm0 0"/><path fill="#908191" d="M188.027 182.168c-.527.352-.352.879-.41 1.348-1.988.059-3.973.176-5.898-.527-.293-.352-.352-.703 0-1.055l6.309-5.801v6.035zm0 0"/><path fill="#8b7f8f" d="M180.199 182.813c-4.5-.937-8.996-1.934-13.32-3.691-.172-.293-.172-.586.117-.82.469-.234.996-.234 1.461-.117 3.621.879 7.242 1.465 10.922 2.168.645.234.938.762 1.113 1.406.059.41.059.762-.293 1.055zm0 0"/><path fill="#d15f6c" d="M166.938 178.477c-.059.234-.059.41-.059.645-.523.176-1.051.059-1.457-.293 0-.41-.117-.879.348-1.113h.352c.234-.176.469-.176.703-.117.113.117.23.234.289.41l-.176.469zm0 0"/><path fill="#cb555b" d="M180.199 182.813v-.937c.059-.293.234-.469.465-.586.293-.059.527 0 .703.176a3.25 3.25 0 0 0 .352.469v1.055c-.527.117-1.055.059-1.52-.176zm0 0"/><path d="M191.414 167.75c-.41-.117-.875-.117-1.227-.352-.41-.293-.934-.586-.934-1.23a.63.63 0 0 1 .582-.586c.703.059 1.109.527 1.344 1.113.117.352.176.703.234 1.055zm0 0" class="E"/><path fill="#b95f3e" d="M236.215 122.684l-.352-.352 3.738-6.625c.234-.352.586-.469.938-.352.641.234.582.879.406 1.23-.406.938-.875 1.996-1.578 2.641-1.227.996-1.34 2.988-3.152 3.457zm0 0"/><path fill="#b85f40" d="M233.938 120.867l2.629-4.867c.406 0 .641-.234.758-.645.176-.527.527-.937 1.109-.703.586.293.527 1.055.293 1.289-1.52 1.758-2.16 4.223-4.379 5.277-.117-.117-.234-.234-.41-.352zm0 0"/><path fill="#e59819" d="M218.051 164.41c.816.234 1.168 1.055 1.867 1.465-2.395 4.688-4.437 9.613-7.945 13.656-2.395 2.813-7.941 4.629-10.629 2.695-.117-.879.234-1.465 1.051-1.816 6.895.41 9.578-4.863 12.5-9.613 1.168-1.992 2.395-4.102 3.156-6.387zm0 0"/><path fill="#e6a114" d="M202.453 180.762c-.758.176-.582 1.113-1.109 1.465h-1.109l-1.109-.352v-.41c-.234-.879.234-1.348.992-1.699a.8.8 0 0 1 .523 0c.645.117 1.285.117 1.813.469a.44.44 0 0 1 0 .527zm0 0"/><path fill="#b15f2a" d="M129.438 125.32c-.113.703-.465.879-.934.352l-2.16-2.754c.992.117 1.227 1.055 1.984.996.352.469.469 1.172 1.109 1.406zm0 0"/><path fill="#b6322f" d="M160.223 163.238c-.527-.879-.293-1.406.699-1.406 7.129-.293 18.574 3.223 25.059 5.859.059.117.176.234.234.41.352 0 4.148 1.406 4.438 1.758.117.176.234.293.352.469.117.41.934.586.586 1.113-.586.883-1.285 0-1.988.059l-3.504-1.582c-.934.293-5.434-1.992-6.367-1.758-1.109-.234-2.277-.234-2.805-1.465-.055.059-.172.117-.23.117-2.164.234-3.973-.996-6.02-1.348-.523-.176-1.168-.234-1.516-.762-.996-.059-1.754-.176-2.281-.352-1.633.527-3.152-.293-4.73-.41-.117 0-.234-.059-.348-.117 0 .176.289.352.348.527-.875-.059-1.52-.352-1.926-1.113zm0 0"/><path fill="#b35e2a" d="M144.277 142.785c-.059.645.582.938.758 2.051-1.285-1.23-2.102-2.227-2.629-3.516l1.871 1.465zm0 0"/><path fill="#d2773e" d="M153.563 157.32c-.293-.117-.523-.293-.816-.41-.469.117-.586-.293-.703-.645-.117-.527-.465-1.055 0-1.582.938.645 1.227 1.641 1.52 2.637zm0 0"/><path fill="#fdfcfc" d="M189.602 171.5c.176 1.176-.699.531-1.051.531-2.512-.234-4.965-.766-7.418-1.41-1.52-.41-1.926 0-3.211-.996-2.805-.352-5.375-1.523-8.062-2.285-1.109 0-2.043-.527-2.98-1.113l-4.73-1.875c-.348-.234-.992-.41-.117-.762l4.848.762 2.281.352c4.027 1.113 18.75 4.746 20.441 6.797zm0 0"/><path fill="#ecebea" d="M203.621 199.691l2.922-1.113c-.762 1.758.641 3.105.875 4.688.117.586.645 1.055.586 1.641-.762.527-.645-1.465-1.461-.352l-2.922-4.863zm0 0"/><path fill="#a99aab" d="M187.969 175.137l-5.844 5.625c-.641.059-1.344.117-1.926-.117-.82-.352-1.109-1.113-1.402-1.816-1.051-2.168-2.57-4.043-3.156-6.387 0-.234.117-.41.293-.469.703-.352 1.344-.059 1.988.117 2.918.82 5.84 1.523 8.82 1.699.875.059 1.457.352 1.227 1.348zm0 0"/><path fill="#dd3739" d="M175.816 172.148c0 .117-.059.234-.059.352-.117.176-.289.234-.465.234-.059 0-.117-.059-.234-.059-.117-.117-.234-.234-.293-.41 0-1.234-.816-1.527-1.809-1.762v-.059c-.059.059-.117.059-.117.059-3.039-.176-5.727-1.172-8.238-2.812-.582-.762-1.461-.586-2.219-.703-1.227-.234-1.867-1.406-2.922-1.934-.465-.82-.875-1.582-.758-2.637.234-1.875 4.438-1.23 4.555-.469-.059.703-.641.469-.934.41-.934-.234-3.387.703.117 1.816 5.551 2.344 22.371 7.797 26.984 7.148.879.059 1.52-.352 1.813-1.23 1.578.059 2.043.938 1.871 2.406-.469 1.113-1.113 1.934-2.512 1.699-.586-.117-.703.293-.762.762-.059.645-.465.82-1.109.703-.117.059-.234 0-.352-.117 0-.117-.059-.234-.059-.352-.23-1.055-.699-1.465-1.984-1.465-3.039-.117-6.016-.937-8.996-1.641-.523-.176-1.051-.41-1.52.059zm0 0"/><path fill="#e5951a" d="M190.598 174.199c.875-.293 1.691-.82 2.219-1.641 1.461 2.695 4.086 4.277 6.367 6.152.406.352 1.168.469 1.051 1.289-.645.293-.762.938-1.109 1.465-3.562-.645-5.492-3.398-7.711-5.859-.234-.293-.352-.645-.762-.762-.055-.176-.055-.41-.055-.645zm0 0"/><path fill="#a76171" d="M175.816 172.148c.996-1.527 2.395-.41 3.332-.176 2.453.645 4.965 1.113 7.477 1.289 1.516.059 2.043.527 1.691 1.934-.117 0-.23 0-.348-.059-.234-1.523-1.461-.762-2.164-.879-3.445-.352-6.656-1.523-9.988-2.109zm0 0"/><path fill="#dfd5e0" d="M188.375 175.547c.117 0 .234.059.352.117v4.57c-.117 0-.234 0-.352.059v-4.746zm0 0"/><path fill="#8d828f" d="M180.258 180.352c.582.117 1.344-.234 1.867.41-.289.234-.523.469-.758.703h-.758c-.469-.234-.762-.586-.352-1.113zm0 0"/><path d="M153.504 149.465c.117 1.055-.352 1.758-1.344 1.875-1.285.117-2.043-.586-2.336-1.875 1.109.703 2.219 2.109 3.328 0h.352zm0 0" class="G"/><path d="M200.234 180c-2.277-1.582-4.441-3.281-6.484-5.156-.641-.645-1.051-1.348-.934-2.285.059-1.293-.469-2.113-1.812-2.23-.406 0-2.395-.937-2.219-1.348.641-.469 3.152-1.875 3.855-1.934 3.211 0 6.66.703 9.871.703 4.266-2.754 4.848-3.398 7.359-4.102 2.219.41 4.031-.762 5.898-1.582.586 1.699 1.227-.703 1.813.059l.469 2.285c.059.352.23.82.113 1.055-2.566 4.98-4.848 10.141-9.402 13.773-1.871 1.523-4.031 1.582-6.309 1.523v-.41c.059-.293.234-.586.293-.879.117-.469-.059-.879-.527-.996s-.699.234-.816.586c-.176.352-.293.82-.816.938h-.352zm0 0" class="E"/><path fill="#7c3a2c" d="M210.629 152.395c-.113.41-.289.82-.406 1.172-1.402 1.117-1.754 3.051-3.098 4.223-.348.234-.465.527-.875.293-.176-3.516 1.344-5.453 4.379-5.687zm0 0"/><path fill="#da3d30" d="M194.336 141.32c-.117 1.348 1.34 2.637.348 4.043-.059.059-1.227 1.582-1.109 2.637-.816.234-1.52.469-2.102-.469-.527-.879-.293-1.816.176-2.52.816-1.289 1.809-2.461 2.688-3.691zm0 0"/><path fill="#da3d2f" d="M191.004 152.453c-.641-.059-.992.586-1.52.762-.875-1.348-1.457-2.812-1.457-4.453.406-.469.758-1.523 1.457-.762.938.938.645 1.992-.758 2.871 1.695-.352 2.336.234 2.277 1.582zm0 0"/><path fill="#ca5b4c" d="M198.363 152.102c-.406.059-.934.996-1.109-.234-.117-1.289-.758-.879-1.461-.469-.172-.41-.758-.527-.758-1.055.641.059 1.285.352 1.813.176 1.75-.586 1.691.352 1.516 1.582zm0 0"/><path fill="#b35e2a" d="M136.273 135.281c1.227.766 1.867 1.996 2.629 3.168-1.285-.762-1.93-1.934-2.629-3.168zm0 0"/><path fill="#b35c2a" d="M141.004 143.195c-.934-.352-1.285-1.289-1.926-1.875-.059-.469-.762-.645-.527-1.348 1.109.879 1.871 1.992 2.453 3.223zm0 0"/><path fill="#b3602a" d="M137.852 139.152c-.937-.352-1.168-1.23-1.578-1.992.875.352 1.109 1.23 1.578 1.992zm0 0"/><path fill="#a99cab" d="M166.766 177.773c-.234 0-.41-.059-.645-.059 0-2.051-1.051-3.75-1.578-5.625-.348-1.352-.875-2.641-1.344-3.988-.172-1.641.703-1.055 1.461-.703 2.57 1.348 5.316 2.227 8.121 2.93.758.527 2.102.352 1.984 1.82-2.277 2.402-4.906 4.395-8 5.625zm0 0"/><path fill="#cb484b" d="M164.66 167.398c-.523.059-1.344-.293-1.461.703-.348 0-.758-.059-1.109-.059-.117-.527.117-.937.293-1.406.758.176 1.93-.645 2.277.762zm0 0"/><path fill="#b05d2a" d="M150.176 156.559c1.344.879 1.809 2.344 2.277 3.75-1.109-1.055-1.812-2.344-2.277-3.75zm0 0"/><path fill="#b2612a" d="M152.043 154.684l.41 1.523c-.699.645.586 1.23.059 1.816l-.117.059c-.934-.937-1.461-2.109-1.809-3.398.465-.586-.703-1.234 0-1.82.875.293.758 1.41 1.457 1.82zm0 0"/><path fill="#d2813f" d="M150.586 152.863l.582 1.527c.176.82-.352.293-.582.293l-.762-1.117c.059-.41-.176-1.172.762-.703zm0 0"/><path fill="#7a392c" d="M215.422 154.742c.992 1.699 1.109 3.34.059 5.039-1.285 1.992-3.039 2.637-5.258 2.344-.703-.469-.469-.996-.059-1.523l3.797-5.156c.352-.586.816-.762 1.461-.703zm0 0"/><path fill="#d3503f" d="M195.734 145.48c.176 1.582 1.113 2.754 1.93 4.043-2.453 1.172-4.148-2.285-2.629-3.398l.699-.645zm0 0"/><path fill="#d15a49" d="M198.715 148.703c-1.109.117-.758-1.172-1.461-1.406 1.227-.527 1.461-.293 1.461 1.406zm0 0"/><path fill="#d77664" d="M195.676 143.664c-.406-1.172-.875-1.992-.113-2.812.172-.234.465-.176.641 0 .645.996.059 1.699-.527 2.813zm0 0"/><path fill="#d28241" d="M152.512 158.023c-.234-.469-.527-.996-.641-1.523-.234-.82.348-.234.582-.293 0 .293.059.586.293.703-.41.293 1.168 1.113-.234 1.113zm0 0"/><path fill="#a89ead" d="M175 172.617h.41c1.574 2.637 3.328 5.098 4.086 8.145-3.738-.41-7.359-1.172-10.98-1.992-.523-.117-1.051-.176-1.578-.293-.059-.117-.059-.176-.059-.293 2.688-1.934 5.199-4.043 8.121-5.566zm0 0"/><path fill="#d5c8d7" d="M179.496 180.762l-4.086-8.145c.117-.059.23-.059.348-.117l4.5 7.852.352 1.113c-.117.117-.293.234-.41.41l-.703-1.113zm0 0"/><path fill="#d5cdd9" d="M175 172.617c-2.57 1.992-5.199 3.984-8.121 5.566-.055-.117-.055-.293-.113-.41l7.707-5.566c.352-.117.41.234.586.352zm0 0"/><path fill="#fdfdfc" d="M184.695 169.566c-1.227 2.055-2.453.645-3.68.059l3.68-.059zm0 0"/><path fill="#f3b503" d="M200.586 180c.113-.293.289-.586.348-.879.117-.527-.117-1.289.879-1.348.758-.059 1.285.352 1.457.879.234.703.176 1.523-.816 1.699-.582-.059-1.344.234-1.867-.352zm0 0"/><path fill="#c0555f" d="M175.059 172.559l-.527-.352c.176-1.352-1.633-.824-1.75-1.879 1.809-.352 2.57.352 2.277 2.23zm0 0"/><path fill="#e5c87c" d="M159.172 149.582l-4.676-8.203c-.348-.586-1.051-1.23-.23-1.992.641-.293.699.117.992.645 1.691 3.516 3.504 6.973 5.723 10.195 4.207 7.738 6.836 12.836 7.477 14.535.059-.059.059-.059.117-.059.234 0 .469.234.469.527 0 .234-.234.469-.469.469-.293 0-.523-.234-.523-.469 0-.176.059-.293.172-.352-1.051-1.465-3.91-6.27-9.051-15.297zm0 0"/><path fill="#82775f" d="M204.672 169.391c3.449 4.75-6.426-1.875-6.543-3.457 2.223-2.168 6.543 3.398 6.543 3.457zm0 0"/><path fill="#e5c87c" d="M200.816 167.867l9.348-.762c.699-.059 1.578-.41 1.926.586 0 .703-.406.645-.992.645-3.914.059-7.77.293-11.625.938-8.762.527-14.484.762-16.297.703v.059c-.113.234-.406.352-.641.234s-.352-.41-.234-.645.41-.352.645-.234c.117.059.23.176.23.293 1.754-.352 7.363-.937 17.641-1.816zm0 0"/></g><path d="M127.953 252.674c0 .207-.102.313-.297.313-.117 0-.23-.059-.344-.172l-1.453-1.469c-1.336 1.293-2.945 1.938-4.828 1.938-2.418 0-4.512-1-6.281-3-1.719-1.937-2.578-4.125-2.578-6.562 0-2.488.879-4.664 2.641-6.531 1.75-1.875 3.867-2.812 6.359-2.812 1.781 0 3.297.461 4.547 1.375l1.031-.969c.188-.176.348-.266.484-.266.219 0 .328.184.328.547v4.313c0 .305-.086.453-.25.453-.125 0-.219-.078-.281-.234l-.047-.141c-1.168-2.895-3.105-4.344-5.812-4.344-3.461 0-5.187 2.398-5.187 7.188v2.969c0 4.867 1.68 7.297 5.047 7.297 2.602 0 4.688-1.68 6.25-5.047.113-.25.242-.375.391-.375.188 0 .281.133.281.391zm18.467-.563h2.484v-8.578h-7.406v8.578h2.5v.672h-8.047v-.672h2.5v-16.75h-2.5v-.672h8.047v.672h-2.5v7.469h7.406v-7.469h-2.484v-.672h8.016v.672h-2.469v16.75h2.469v.672h-8.016zm24.821 0h2.906l-1.766-4.875h-5.641l-1.734 4.875h3.375v.672h-6.687v-.672h2.531l6.344-17.672h.5l6.344 17.672h2.547v.672h-8.719zm-4.234-5.547h5.125l-2.578-7.109zm35.557 6.438h-1.172l-11-16.562v15.672h2.5v.672h-5.703v-.672h2.5v-16.75h-2.5v-.672h5.891l8.781 13.188v-12.516h-2.5v-.672h5.703v.672h-2.5zm25.976-5.516c0 1.938-.695 3.414-2.078 4.422-1.199.914-2.82 1.375-4.859 1.375-2.43 0-4.531-.969-6.312-2.906-1.719-1.895-2.578-4.078-2.578-6.547 0-2.52.867-4.723 2.609-6.609 1.738-1.895 3.863-2.844 6.375-2.844 1.863 0 3.395.492 4.594 1.469l1.156-1.062c.188-.176.352-.266.5-.266.238 0 .359.141.359.422v5.031c0 .242-.102.359-.297.359-.187 0-.324-.113-.406-.344-1.117-3.25-3.086-4.875-5.906-4.875-1.898 0-3.273.742-4.125 2.219-.711 1.219-1.062 2.828-1.062 4.828v3.25c0 2.043.344 3.656 1.031 4.844.863 1.543 2.238 2.313 4.125 2.313 2.426 0 3.641-1.16 3.641-3.484v-2.391h-3.109v-.672h8.828v.672h-2.484zm24.344 4.313c0 .656-.32.984-.953.984h-13.687v-.672h2.438v-16.75h-2.5v-.672h13.047c.57 0 .859.258.859.766v4.031c0 .324-.109.484-.328.484-.23 0-.355-.172-.375-.516-.055-1.008-.312-1.883-.781-2.625-.574-.977-1.445-1.469-2.609-1.469h-4.266v7.547h2.172c.707 0 1.211-.234 1.516-.703.07-.102.156-.289.25-.562a10.27 10.27 0 0 0 .281-1.062c.094-.312.203-.469.328-.469.207 0 .313.148.313.438v5.391c0 .324-.105.484-.312.484-.125 0-.293-.328-.5-.984l-.203-.625-.187-.609c-.281-.414-.777-.625-1.484-.625h-2.172v8.531h4.516c1.219 0 2.117-.398 2.703-1.203.426-.633.805-1.703 1.141-3.203.094-.426.242-.641.453-.641.227 0 .344.25.344.75zm-109.158 14.927c0 .844-.32 1.512-.953 2-.586.438-1.312.656-2.187.656h-1.531v4.047h1.313v.359h-4.297v-.359h1.344v-8.984h-1.344v-.359h4.359c.914 0 1.676.211 2.281.625.676.48 1.016 1.152 1.016 2.016zm-1.516-.25c0-1.352-.594-2.031-1.781-2.031h-1.375v4.578h1.531c1.082 0 1.625-.676 1.625-2.031zm0 0"/><path d="M152.84 273.429h1.563l-.953-2.625h-3.016l-.937 2.625h1.813v.359h-3.594v-.359h1.359l3.406-9.484h.266l3.406 9.484h1.359v.359h-4.672zm-2.281-2.984h2.766l-1.391-3.797zm0 0"/><use xlink:href="#G"/><use xlink:href="#G" x="11.753"/><path d="M193.624 273.944h-.312l-1.672-4.328-1.641 4.328h-.312l-3.609-9.5h-1.172v-.359h9.891v.359h-.969l-1.266 3.297 1.484 3.922 2.766-7.219h-1.297v-.359h2.813v.359h-1.078zm-1.266-6.766l1.047-2.734h-2.109zm-4.672-2.734l2.75 7.188.984-2.578-1.734-4.609zm24.464 4.532c0 1.344-.484 2.527-1.453 3.547-.949 1.023-2.09 1.531-3.422 1.531-1.312 0-2.465-.52-3.453-1.562-.937-1-1.406-2.172-1.406-3.516s.473-2.52 1.422-3.531c.957-1.02 2.102-1.531 3.438-1.531s2.473.512 3.422 1.531c.969 1.012 1.453 2.188 1.453 3.531zm-2.031-.703c0-1.238-.168-2.16-.5-2.766-.449-.801-1.23-1.203-2.344-1.203-1.094 0-1.871.406-2.328 1.219-.336.617-.5 1.531-.5 2.75v1.422c0 2.648.941 3.969 2.828 3.969 1.895 0 2.844-1.32 2.844-3.969zm15.508 4.999c0 .168-.242.324-.719.469-.387.113-.734.172-1.047.172-.512 0-.887-.133-1.125-.406s-.387-.66-.437-1.172l-.047-.594-.047-.906c-.148-1.289-.699-1.937-1.656-1.937h-1.219v4.531h1.328v.359h-4.312v-.359h1.344v-8.984h-1.344v-.359h4.438c.863 0 1.602.184 2.219.547.727.438 1.094 1.063 1.094 1.875 0 1.199-.758 1.961-2.266 2.281.969.262 1.602.668 1.906 1.219.195.387.313 1.102.344 2.141.02.5.051.813.094.938.063.211.242.313.547.313.25 0 .473-.066.672-.203l.125-.016c.07 0 .109.031.109.094zm-3.141-7.016c0-1.207-.57-1.812-1.703-1.812h-1.453v4.094h1.453c1.133 0 1.703-.594 1.703-1.781zm16.515 2.563c0 1.492-.445 2.695-1.328 3.609-.898.906-2.09 1.359-3.578 1.359h-4.656v-.359h1.375v-8.984h-1.375v-.359h4.656c1.426 0 2.598.43 3.516 1.281.926.887 1.391 2.039 1.391 3.453zm-1.844-.359c0-1.176-.219-2.102-.656-2.781-.523-.82-1.336-1.234-2.437-1.234h-1.609v8.984h1.609c2.063 0 3.094-1.414 3.094-4.25zm0 0"/></svg>